<svg width="88.000000" height="31.000000" viewBox="0 0 88 31" fill="none" xmlns="http://www.w3.org/2000/svg" xmlns:xlink="http://www.w3.org/1999/xlink">
	<desc>
			Created with Pixso.
	</desc>
	<defs/>
	<path id="pathSlqx9hducha1" d="M12.95 0.67L12.99 0.83L9.82 24.55C9.82 24.58 9.82 24.62 9.82 24.65C9.79 24.68 9.76 24.7 9.73 24.7C9.67 24.73 9.6 24.77 9.51 24.8C9.48 24.77 9.46 24.75 9.46 24.75C9.43 24.78 9.42 24.8 9.42 24.8C9.39 24.8 9.37 24.82 9.37 24.85C9.37 24.85 9.42 24.92 9.42 24.95C9.42 24.95 9.42 24.97 9.42 25C9.36 24.97 9.29 25 9.2 25.1L9.06 25C9 24.87 9 24.72 9.06 24.55C9.03 24.51 9 24.51 8.97 24.55C8.97 24.55 8.97 24.57 8.97 24.6C8.88 24.83 8.85 25 8.88 25.1C8.94 25.14 8.94 25.17 8.88 25.2C8.82 25.2 8.73 25.25 8.62 25.35C8.5 25.35 8.47 25.32 8.53 25.25L8.53 24.95C8.53 24.82 8.53 24.72 8.53 24.65C8.53 24.58 8.54 24.5 8.57 24.4C8.51 24.4 8.48 24.36 8.48 24.3L8.48 23.54C8.45 23.47 8.45 23.47 8.39 23.54C8.36 23.74 8.33 24.01 8.3 24.35C8.27 24.65 8.26 24.92 8.26 25.15C8.26 25.19 8.2 25.2 8.08 25.2C8.05 25.2 8.02 25.2 7.99 25.2C7.96 25.2 7.93 25.2 7.9 25.2C7.96 25.14 7.92 24.98 7.86 24.85C7.86 24.51 7.89 24.2 7.95 23.89C7.92 23.93 7.86 23.99 7.86 24.09C7.89 24.16 7.9 24.23 7.9 24.3C7.87 24.36 7.84 24.43 7.81 24.5C7.81 24.53 7.8 24.58 7.77 24.65L7.45 24.7C7.45 24.67 7.42 24.6 7.45 24.6C7.45 24.53 7.45 24.45 7.45 24.35C7.45 24.25 7.45 24.18 7.45 24.15C7.45 24.11 7.45 24.08 7.45 24.04L7.32 23.99C7.29 23.89 7.28 23.74 7.28 23.54C7.28 23.37 7.29 23.24 7.32 23.14C7.32 23.14 7.29 23.19 7.23 23.29C7.17 23.79 7.14 24.16 7.14 24.4C7.14 24.5 7.11 24.6 7.05 24.7C7.02 24.7 7.01 24.72 7.01 24.75C6.98 24.78 6.95 24.83 6.92 24.8C6.8 24.73 6.71 24.7 6.65 24.7C6.71 24.36 6.73 24.09 6.7 23.99C6.76 23.93 6.77 23.89 6.74 23.89C6.71 23.99 6.65 24.09 6.65 24.2C6.62 24.26 6.59 24.31 6.56 24.35C6.56 24.41 6.55 24.48 6.52 24.55C6.46 24.58 6.4 24.68 6.34 24.85C6.28 24.78 6.19 24.72 6.07 24.65C6.07 24.62 6.07 24.55 6.07 24.55L6.78 19.01C6.99 17.53 7.44 14.27 8.12 9.24C8.78 4.17 9.14 1.55 9.2 1.38C9.26 1.21 9.29 1.09 9.29 1.03L9.29 0.88C9.26 0.78 9.26 0.69 9.29 0.62C9.31 0.56 9.34 0.52 9.37 0.52C9.4 0.56 9.45 0.57 9.51 0.57C9.54 0.61 9.61 0.61 9.64 0.57C9.64 0.64 9.69 0.74 9.78 0.78C9.78 0.81 9.73 0.84 9.73 0.88L9.87 0.62C9.92 0.62 9.97 0.61 10 0.57L10.04 0.57L10.18 0.62L10.18 0.73C10.21 0.73 10.24 0.69 10.27 0.62C10.3 0.59 10.33 0.56 10.36 0.52C10.39 0.49 10.4 0.51 10.4 0.57C10.46 0.61 10.55 0.69 10.58 0.73L10.62 0.47C10.62 0.41 10.65 0.41 10.71 0.47C10.74 0.47 10.77 0.47 10.8 0.47C10.83 0.44 10.86 0.42 10.89 0.42C10.92 0.46 10.94 0.52 10.94 0.62C10.94 0.73 10.92 0.93 10.89 1.23C10.86 1.56 10.86 1.75 10.89 1.78L10.94 1.83L10.94 1.63C10.94 1.46 10.95 1.25 10.98 0.98C11.01 0.74 11.03 0.54 11.03 0.37C11.03 0.34 11.04 0.32 11.07 0.32C11.07 0.29 11.09 0.26 11.12 0.22C11.12 0.22 11.13 0.22 11.16 0.22L11.43 0.22L11.47 0.32C11.47 0.42 11.44 0.67 11.38 1.08C11.29 1.45 11.26 1.67 11.29 1.73C11.29 1.77 11.32 1.78 11.38 1.78L11.25 1.88C11.34 1.88 11.38 1.87 11.38 1.83C11.38 1.8 11.38 1.82 11.38 1.78C11.35 1.72 11.35 1.6 11.38 1.53L11.38 1.43L11.52 0.47C11.49 0.37 11.49 0.32 11.52 0.32C11.49 0.29 11.47 0.24 11.47 0.17L11.52 0.17C11.55 0.1 11.61 0.05 11.7 0.02C11.76 -0.01 11.79 -0.01 11.79 0.02C11.79 0.05 11.82 0.07 11.87 0.07C11.93 0.1 11.96 0.15 11.96 0.22C11.99 0.22 12.01 0.22 12.01 0.22C11.89 0.96 11.83 1.41 11.83 1.58C11.83 1.65 11.83 1.7 11.83 1.73L11.83 1.83C11.83 1.73 11.83 1.62 11.83 1.58C11.86 1.41 11.9 1.23 11.96 0.93C11.99 0.62 11.98 0.39 12.01 0.22C12.04 0.19 12.07 0.1 12.1 0.07C12.1 0.07 12.11 0.05 12.14 0.02L12.28 0.07L12.37 0.17C12.4 0.2 12.41 0.22 12.41 0.22C12.41 0.26 12.43 0.27 12.45 0.27L12.37 0.47C12.37 0.57 12.38 0.62 12.41 0.62C12.5 0.59 12.54 0.56 12.54 0.52C12.54 0.42 12.54 0.37 12.54 0.37C12.57 0.34 12.6 0.32 12.63 0.32L12.86 0.32C12.86 0.39 12.87 0.44 12.9 0.47C12.93 0.44 12.99 0.51 12.99 0.57C12.99 0.61 12.98 0.64 12.95 0.67ZM32.41 22.58L32.41 22.84C32.41 22.87 32.41 22.9 32.41 22.94C32.38 22.97 32.35 22.99 32.32 22.99L31.83 23.04C31.83 23.07 27.66 23.57 19.33 24.55L19.24 24.55C19.24 24.55 19.21 24.55 19.15 24.55C19.12 24.55 19.09 24.57 19.06 24.6C19.03 24.6 19.02 24.58 19.02 24.55C19.02 24.55 19 24.53 18.97 24.5C18.97 24.46 18.96 24.45 18.93 24.45C18.96 24.38 18.96 24.33 18.93 24.3C18.99 24.26 19.06 24.23 19.06 24.2L19.2 24.15C19.14 24.01 19.06 24.04 18.97 24.15C18.94 24.15 18.91 24.13 18.88 24.09L18.84 24.04C18.84 24.04 18.82 23.98 18.79 23.94C18.79 23.91 18.81 23.88 18.84 23.84L18.88 23.79C18.88 23.79 18.9 23.79 18.93 23.79C18.9 23.73 18.88 23.64 18.88 23.64L18.79 23.64C18.74 23.57 18.72 23.54 18.75 23.54L18.84 23.39C18.87 23.39 18.9 23.32 18.93 23.29L18.93 23.14C18.93 23.04 18.96 22.99 19.02 22.99C19.14 22.92 19.21 22.85 19.24 22.79L19.2 22.79C19.2 22.85 19.17 22.89 19.11 22.89L18.97 22.94C18.85 23.14 18.78 23.29 18.75 23.39C18.72 23.42 18.69 23.44 18.66 23.44C18.63 23.41 18.6 23.39 18.57 23.39C18.54 23.32 18.48 23.29 18.39 23.29C18.36 23.22 18.36 23.19 18.39 23.19C18.48 23.15 18.53 23.09 18.53 22.99L18.62 22.84L18.62 22.74L18.57 22.74L18.53 22.79C18.47 22.75 18.42 22.72 18.39 22.68C18.33 22.65 18.3 22.63 18.3 22.63C18.3 22.6 18.29 22.57 18.26 22.53C18.26 22.5 18.32 22.42 18.35 22.38C18.38 22.35 18.39 22.3 18.39 22.23L18.44 22.23L18.48 22.23L18.48 22.18L18.39 22.23L18.3 22.23C18.3 22.23 18.27 22.18 18.21 22.08L18.08 22.23C18.08 22.33 18.04 22.38 17.95 22.38C17.95 22.45 17.9 22.5 17.81 22.53C17.78 22.53 17.77 22.52 17.77 22.48C17.77 22.48 17.77 22.47 17.77 22.43C17.74 22.37 17.72 22.3 17.72 22.23L17.72 22.13C17.72 22.13 17.75 22.1 17.81 22.03C17.87 22 17.92 21.93 17.95 21.83L17.99 21.78C17.96 21.74 17.95 21.74 17.95 21.78C17.95 21.78 17.95 21.79 17.95 21.83C17.92 21.83 17.87 21.86 17.81 21.93C17.78 21.96 17.75 21.96 17.72 21.93C17.72 21.96 17.71 22 17.68 22.03C17.62 22.06 17.59 22.08 17.59 22.08L17.54 22.08C17.46 22.08 17.38 22.11 17.32 22.18C17.32 21.98 17.29 21.86 17.23 21.83C17.23 21.79 17.23 21.78 17.23 21.78C17.8 21.17 18.88 20.02 20.49 18.3C22.1 16.59 23.78 14.83 25.54 13.01L19.55 13.57C19.55 13.57 19.52 13.57 19.46 13.57C19.43 13.6 19.39 13.6 19.33 13.57C19.3 13.57 19.24 13.57 19.24 13.57C19.24 13.53 19.23 13.5 19.2 13.47C19.2 13.43 19.2 13.33 19.2 13.27C19.29 13.23 19.33 13.2 19.33 13.17L19.42 13.12C19.42 13.15 19.43 13.17 19.46 13.17C19.4 13 19.35 12.98 19.29 13.12L19.2 13.12C19.14 13.12 19.12 13.08 19.15 13.01C19.18 12.98 19.2 12.95 19.2 12.91C19.17 12.85 19.17 12.8 19.2 12.76C19.2 12.73 19.23 12.71 19.29 12.71C19.2 12.61 19.15 12.56 19.15 12.56C19.09 12.49 19.09 12.46 19.15 12.46L19.2 12.31C19.23 12.31 19.26 12.29 19.29 12.26L19.33 12.06C19.33 11.96 19.37 11.89 19.46 11.86L19.55 11.86C19.49 11.86 19.4 11.87 19.29 11.91C19.26 11.94 19.23 11.94 19.2 11.91C19.2 11.87 19.18 11.86 19.15 11.86L19.06 11.6C19.09 11.57 19.11 11.55 19.11 11.55C19.17 11.52 19.24 11.5 19.33 11.5L19.29 11.45L19.11 11.45C19.08 11.49 19 11.5 18.97 11.5C18.94 11.47 18.91 11.44 18.88 11.4C18.88 11.4 18.87 11.39 18.84 11.35C18.78 11.35 18.76 11.35 18.79 11.35C18.82 11.29 18.88 11.2 18.97 11.1L19.33 11C19.36 11.03 19.43 10.98 19.55 10.85C19.52 10.85 19.48 10.87 19.42 10.9C19.36 10.93 19.33 10.95 19.33 10.95C19.27 10.95 19.15 11 18.97 11.1L18.88 11.1C18.88 11.07 18.85 11.02 18.79 10.95C18.76 10.92 18.76 10.88 18.79 10.85C18.79 10.85 18.79 10.83 18.79 10.8L18.79 10.7C18.79 10.63 18.84 10.6 18.93 10.6C18.96 10.6 18.99 10.6 19.02 10.6C19.05 10.56 19.08 10.55 19.11 10.55C19.17 10.55 19.2 10.51 19.2 10.45C19.14 10.45 19.11 10.45 19.11 10.45C19.02 10.48 18.97 10.46 18.97 10.4C18.94 10.36 18.93 10.31 18.93 10.24C18.96 10.21 18.96 10.18 18.93 10.14C18.96 10.14 18.99 10.11 19.02 10.04C26.01 9.3 29.52 9 29.55 9.14C29.58 9.1 29.64 9.09 29.73 9.09C29.82 9.09 29.9 9.07 29.96 9.04C29.96 9.1 29.96 9.15 29.96 9.19C29.99 9.25 30 9.29 30 9.29C30 9.29 29.88 9.32 29.64 9.39C29.44 9.49 29.35 9.56 29.38 9.59C29.46 9.62 29.58 9.62 29.73 9.59C29.88 9.56 29.97 9.56 30 9.59C30 9.66 29.91 9.71 29.73 9.74C29.52 9.81 29.38 9.86 29.29 9.89L29.46 9.94C29.49 9.98 29.52 9.99 29.55 9.99C29.55 9.99 29.55 9.98 29.55 9.94C29.61 9.94 29.69 9.93 29.78 9.89C29.84 9.82 29.88 9.81 29.91 9.84C29.97 9.81 30 9.81 30 9.84C30 9.91 30 9.96 30 9.99L30.05 10.19L30.05 10.29C29.99 10.36 29.88 10.4 29.73 10.4C29.7 10.4 29.67 10.41 29.64 10.45C29.61 10.48 29.58 10.5 29.55 10.5C29.55 10.56 29.52 10.63 29.46 10.7C29.52 10.73 29.55 10.75 29.55 10.75L30 10.65C30.06 10.65 30.09 10.66 30.09 10.7C30.09 10.7 30.1 10.73 30.13 10.8C30.13 10.87 30.13 10.9 30.13 10.9L30.05 10.95L30.05 11.1C30.05 11.1 30.03 11.12 30 11.15C29.97 11.18 29.93 11.23 29.87 11.3L29.87 11.45L30.09 11.15C30.09 11.12 30.1 11.08 30.13 11.05L30.13 10.9C30.25 10.87 30.33 10.92 30.36 10.95C30.45 10.95 30.48 10.95 30.45 10.95C30.45 10.98 30.48 11.03 30.54 11.1C30.57 11.13 30.57 11.17 30.54 11.2C30.54 11.23 30.48 11.35 30.27 11.55C30.09 11.76 29.97 11.92 29.91 12.06C29.97 12.02 30.09 11.91 30.27 11.71C30.45 11.47 30.57 11.34 30.63 11.3L30.54 11.2C30.54 11.2 30.64 11.2 30.76 11.2C30.79 11.23 30.83 11.29 30.89 11.35C30.86 11.35 30.85 11.37 30.85 11.4C30.82 11.4 30.8 11.42 30.8 11.45C30.8 11.45 30.8 11.47 30.8 11.5C30.77 11.5 30.73 11.54 30.67 11.6L30.67 11.81L30.8 11.76C30.8 11.72 30.85 11.69 30.94 11.65C31.06 11.72 31.13 11.76 31.16 11.76C31.16 11.82 31.16 11.86 31.16 11.86C31.16 11.89 31.16 11.92 31.16 11.96C31.19 11.96 31.19 11.97 31.16 12.01C31.16 12.04 31.13 12.06 31.07 12.06L31.03 12.11L23.3 20.52C28.96 19.75 31.8 19.41 31.83 19.51C31.86 19.48 31.94 19.46 32.05 19.46C32.14 19.46 32.22 19.44 32.28 19.41C32.28 19.48 32.28 19.53 32.28 19.56C32.28 19.63 32.29 19.66 32.32 19.66C32.32 19.7 32.2 19.73 31.96 19.76C31.7 19.83 31.58 19.88 31.61 19.91C31.7 19.95 31.82 19.95 31.96 19.91C32.11 19.91 32.22 19.91 32.28 19.91C32.31 19.98 32.22 20.07 32.01 20.17C31.83 20.23 31.68 20.27 31.56 20.27L31.74 20.37C31.77 20.4 31.8 20.42 31.83 20.42C31.83 20.42 31.83 20.4 31.83 20.37C31.89 20.37 31.95 20.35 32.01 20.32C32.1 20.28 32.17 20.27 32.23 20.27C32.29 20.27 32.32 20.3 32.32 20.37L32.37 20.57L32.37 20.67C32.31 20.74 32.25 20.77 32.19 20.77C32.1 20.8 32.02 20.82 31.96 20.82L31.79 20.87C31.82 20.94 31.8 21.01 31.74 21.07C31.62 21.14 31.43 21.17 31.16 21.17C31.16 21.27 31.18 21.36 31.21 21.32C31.38 21.26 31.58 21.21 31.79 21.17C31.96 21.11 32.14 21.06 32.32 21.02C32.38 21.02 32.41 21.04 32.41 21.07C32.41 21.07 32.43 21.11 32.46 21.17C32.46 21.27 32.47 21.32 32.5 21.32C32.53 21.32 32.5 21.36 32.41 21.43C32.29 21.46 32.23 21.48 32.23 21.48C32.29 21.48 32.04 21.56 31.47 21.73C31.47 21.76 31.47 21.83 31.47 21.83C31.47 21.83 31.47 21.76 31.47 21.73C31.53 21.73 31.65 21.74 31.83 21.68C31.89 21.68 31.95 21.66 32.01 21.63C32.07 21.59 32.11 21.59 32.14 21.63L32.19 21.63L32.19 22.03C32.1 22.06 32.04 22.1 32.01 22.13C31.95 22.13 31.89 22.15 31.83 22.18C31.8 22.18 31.74 22.18 31.74 22.18L31.79 22.38L30.98 22.53C30.98 22.6 31 22.65 31.03 22.68C31.03 22.72 31.04 22.72 31.07 22.68L32.14 22.48C32.17 22.48 32.19 22.48 32.19 22.48C32.19 22.52 32.22 22.53 32.28 22.53L32.41 22.53C32.47 22.5 32.47 22.52 32.41 22.58ZM29.24 10.75L29.2 10.8L29.2 10.85L29.24 10.75ZM29.33 11.35L29.42 11.35C29.42 11.29 29.42 11.25 29.42 11.25L29.38 11.25L29.33 11.35ZM19.64 11.45C19.64 11.39 19.61 11.35 19.55 11.35C19.49 11.35 19.43 11.4 19.37 11.5L19.51 11.45C19.51 11.45 19.61 11.42 19.64 11.45ZM29.46 11.81C29.49 11.84 29.51 11.87 29.51 11.91C29.51 11.87 29.54 11.82 29.6 11.76C29.63 11.76 29.64 11.76 29.64 11.76L29.64 11.65L29.6 11.76L29.46 11.81ZM19.64 11.76L19.6 11.86L19.64 11.76ZM29.51 12.01L29.51 11.91L29.42 11.91L29.51 12.01ZM29.42 11.91L29.51 12.01C29.51 12.04 29.48 11.97 29.42 11.91ZM18.57 21.63C18.57 21.63 18.59 21.61 18.62 21.58L18.57 21.63ZM50.05 10.4C49.9 10.87 49.81 11.18 49.78 11.25L42.05 30.39L42.01 30.54C41.98 30.54 41.95 30.54 41.92 30.54C41.89 30.58 41.89 30.61 41.92 30.64C41.86 30.64 41.83 30.64 41.83 30.64C41.83 30.71 41.83 30.74 41.83 30.74C41.8 30.74 41.79 30.81 41.79 30.84L41.79 30.94C41.82 30.98 41.77 31 41.65 31C41.62 31 41.58 30.96 41.52 30.89C41.43 30.79 41.39 30.74 41.39 30.74L41.43 30.69L41.43 30.54C41.34 30.54 41.33 30.54 41.3 30.64L41.25 30.64C41.25 30.64 41.22 30.64 41.16 30.64L41.07 30.64C41.04 30.58 40.98 30.54 40.89 30.54L40.89 30.44C40.89 30.41 40.85 30.39 40.76 30.39C40.82 30.36 40.76 30.27 40.67 30.24C40.64 30.24 40.63 30.27 40.63 30.34C40.6 30.37 40.57 30.39 40.54 30.39C40.48 30.39 40.45 30.39 40.45 30.39C40.42 30.32 40.37 30.29 40.31 30.29C40.28 30.26 40.28 30.22 40.31 30.19C40.37 30.12 40.39 30.07 40.36 30.04C40.36 30 40.33 29.97 40.27 29.94C40.3 30 40.28 30.05 40.22 30.09C40.19 30.12 40.14 30.21 40.14 30.24C40.14 30.27 40.11 30.29 40.05 30.29L40 30.39C39.97 30.39 39.94 30.34 39.91 30.24C39.88 30.17 39.84 30.14 39.78 30.14C39.81 30.11 39.82 30.05 39.82 29.99L39.78 30.14C39.72 30.17 39.61 30.17 39.55 30.14C39.5 30.14 39.45 30.14 39.42 30.14L39.38 29.99L39.38 29.94C39.38 29.8 39.39 29.69 39.42 29.58C39.42 29.55 39.44 29.52 39.47 29.48C39.47 29.48 39.48 29.48 39.51 29.48L39.47 29.43L39.42 29.58C39.39 29.69 39.38 29.8 39.38 29.94C39.38 29.97 39.38 29.99 39.38 29.99C39.38 29.99 39.32 29.97 39.29 29.94C39.26 29.9 39.23 29.9 39.2 29.94L39.06 29.94C39.03 29.94 39.02 29.9 39.02 29.84L38.93 29.69C38.93 29.65 38.94 29.6 38.97 29.53L38.97 29.33C38.91 29.33 38.84 29.33 38.84 29.33C38.84 29.4 38.84 29.43 38.84 29.43C38.81 29.43 38.78 29.43 38.75 29.43C38.69 29.4 38.65 29.4 38.62 29.43C38.62 29.37 38.59 29.3 38.53 29.23C38.53 29.17 38.54 29.13 38.57 29.13C38.63 29.13 38.66 29.11 38.66 29.08L42.19 20.37C42.16 20.37 42.11 20.38 42.05 20.42C42.05 20.42 42.05 20.38 42.05 20.32C42.05 20.28 42.03 20.23 41.97 20.17C41.88 20.07 41.82 19.95 41.79 19.81C41.76 19.88 41.74 19.95 41.74 20.02L41.83 20.12L41.56 20.17L41.47 20.17C41.41 20 41.39 19.85 41.39 19.71C41.36 19.68 41.28 19.63 41.25 19.66L41.16 19.66L40.89 19.06C40.92 19.06 40.94 19.08 40.94 19.11C41.03 19.55 41.09 19.88 41.12 20.12C41.21 20.22 41.24 20.28 41.21 20.32C41.21 20.32 41.21 20.33 41.21 20.37C41.24 20.4 41.22 20.45 41.16 20.52C41.07 20.55 41.01 20.55 40.98 20.52C40.95 20.52 40.91 20.54 40.85 20.57L40.85 20.47C40.85 20.3 40.79 20.12 40.67 19.91C40.7 19.91 40.73 19.9 40.76 19.86C40.76 19.83 40.75 19.81 40.72 19.81C40.69 19.85 40.64 19.86 40.67 19.86C40.67 19.96 40.69 20.05 40.72 20.12C40.75 20.18 40.75 20.23 40.72 20.27C40.75 20.27 40.76 20.3 40.76 20.37C40.73 20.4 40.72 20.42 40.72 20.42C40.69 20.49 40.67 20.55 40.67 20.62C40.67 20.65 40.67 20.69 40.67 20.72C40.58 20.79 40.48 20.79 40.36 20.72C40.39 20.69 40.09 19.95 39.55 18.61C39.05 17.23 38.66 16.2 38.39 15.53C37.5 13.22 37.04 11.99 37.01 11.86C37.01 11.76 37.01 11.67 37.01 11.6C37.01 11.54 37.01 11.49 37.01 11.45L37.01 11.35C37.01 11.32 36.98 11.3 36.92 11.3C36.92 11.27 36.91 11.23 36.88 11.2C36.88 11.17 36.89 11.13 36.92 11.1L36.88 11.05C36.88 10.98 36.88 10.95 36.88 10.95C36.91 11.02 36.95 11.02 37.01 10.95C37.1 10.92 37.14 10.9 37.14 10.9C37.14 10.9 37.2 10.97 37.32 11C37.26 11.03 37.25 11.07 37.28 11.1L37.37 11.1C37.37 11 37.35 10.92 37.32 10.85L37.37 10.7L37.46 10.7L37.59 10.7L37.68 10.8L37.68 10.6C37.68 10.53 37.68 10.5 37.68 10.5C37.71 10.53 37.72 10.56 37.72 10.6C37.72 10.6 37.8 10.61 37.95 10.65L37.86 10.4C37.83 10.33 37.86 10.31 37.95 10.35C37.95 10.35 37.96 10.33 37.99 10.29C38.02 10.26 38.04 10.24 38.04 10.24C38.1 10.24 38.16 10.29 38.22 10.4L38.26 10.5L38.17 10.19C38.17 10.09 38.19 10.04 38.22 10.04C38.22 10.04 38.22 10.03 38.22 9.99C38.27 9.93 38.36 9.89 38.48 9.89C38.63 10.56 38.8 11.02 38.89 11.15C38.89 11.15 38.91 11.15 38.97 11.15C38.89 11.08 38.84 11.02 38.84 10.95L38.62 10.04C38.59 9.98 38.59 9.94 38.62 9.94C38.56 9.91 38.53 9.88 38.53 9.84C38.53 9.81 38.53 9.79 38.53 9.79L38.62 9.59C38.68 9.56 38.71 9.54 38.71 9.54C38.74 9.57 38.77 9.59 38.8 9.59C38.86 9.59 38.89 9.61 38.89 9.64C38.91 9.71 39 9.89 39.06 10.19C39.15 10.53 39.21 10.75 39.24 10.85C39.3 10.92 39.33 10.95 39.33 10.95C39.33 10.95 39.3 10.9 39.24 10.8C39.21 10.66 39.12 10.46 39.06 10.19C39 9.93 39 9.72 38.97 9.59L38.97 9.39C39.03 9.35 39.09 9.35 39.15 9.39C39.15 9.39 39.21 9.42 39.24 9.49C39.3 9.52 39.33 9.52 39.33 9.49C39.33 9.52 39.33 9.59 39.33 9.69C39.36 9.72 39.41 9.74 39.47 9.74C39.5 9.74 39.5 9.72 39.47 9.69C39.44 9.62 39.44 9.54 39.47 9.54C39.47 9.51 39.47 9.47 39.47 9.44C39.58 9.4 39.64 9.37 39.64 9.34C39.7 9.37 39.73 9.4 39.73 9.44C39.76 9.44 39.82 9.46 39.82 9.49C39.85 9.52 39.85 9.54 39.82 9.54C39.91 9.64 39.96 9.69 39.96 9.69L43.08 18.1L46.65 9.24C46.71 9.17 46.77 9.14 46.83 9.14C46.86 9.14 46.89 9.14 46.92 9.14C46.95 9.17 46.98 9.17 47.01 9.14C46.98 9.24 46.98 9.39 46.92 9.59C46.86 9.82 46.85 9.96 46.88 9.99C46.85 9.96 46.91 9.82 47.06 9.59C47.17 9.35 47.28 9.19 47.37 9.09C47.37 9.12 47.4 9.14 47.37 9.14C47.43 9.24 47.43 9.37 47.37 9.54L47.5 9.54C47.62 9.37 47.68 9.22 47.68 9.09C47.74 9.09 47.81 9.04 47.81 9.04C47.84 9.07 47.87 9.09 47.9 9.09C47.93 9.09 47.93 9.12 47.9 9.19C47.9 9.25 47.92 9.32 47.95 9.39C47.95 9.49 47.93 9.57 47.9 9.64C47.87 9.67 47.84 9.71 47.81 9.74C47.84 9.77 47.87 9.84 47.9 9.94C47.84 10.08 47.81 10.24 47.81 10.45C47.78 10.45 47.72 10.45 47.72 10.45C47.78 10.48 47.81 10.5 47.81 10.5C47.81 10.46 47.81 10.45 47.81 10.45C47.87 10.14 48.01 9.79 48.22 9.39C48.25 9.39 48.31 9.39 48.39 9.39L48.53 9.39C48.59 9.39 48.6 9.42 48.57 9.49C48.6 9.52 48.6 9.57 48.57 9.64C48.51 9.71 48.45 9.81 48.39 9.94C48.33 10.11 48.31 10.23 48.31 10.29L48.26 10.4C48.32 10.43 48.35 10.41 48.35 10.35C48.35 10.18 48.36 10.08 48.39 10.04C48.42 10.01 48.45 9.96 48.48 9.89C48.48 9.82 48.51 9.79 48.57 9.79L48.62 9.84C48.68 9.94 48.75 9.99 48.84 9.99C48.84 10.03 48.84 10.04 48.84 10.04C48.75 10.21 48.71 10.31 48.71 10.35C48.71 10.38 48.72 10.41 48.75 10.45C48.78 10.48 48.77 10.5 48.8 10.5L48.84 10.65C48.84 10.75 48.8 10.92 48.71 11.15C48.77 11.18 48.8 11.18 48.8 11.15C48.8 11.15 48.89 10.83 49.06 10.19C49.15 10.09 49.2 10.04 49.2 10.04C49.32 10.04 49.35 10.03 49.29 9.99C49.29 9.96 49.32 9.94 49.38 9.94C49.41 9.98 49.44 10.01 49.47 10.04C49.5 10.11 49.51 10.16 49.51 10.19C49.51 10.19 49.51 10.21 49.51 10.24C49.51 10.24 49.51 10.26 49.51 10.29C49.51 10.33 49.5 10.38 49.47 10.45C49.44 10.51 49.42 10.6 49.42 10.7L49.42 10.85L49.6 10.4L49.64 10.35C49.67 10.35 49.75 10.29 49.87 10.19C49.87 10.26 49.9 10.29 49.96 10.29C49.99 10.33 50.02 10.36 50.05 10.4ZM47.1 9.19L47.01 9.14L47.1 9.19ZM38.62 11.4L38.57 11.2C38.54 11.2 38.45 11.02 38.3 10.65C38.45 11.12 38.54 11.35 38.57 11.35L38.62 11.4ZM38.97 11.15C38.97 11.18 38.91 11.15 38.89 11.15C38.89 11.15 38.91 11.22 38.89 11.25L38.97 11.15ZM42.28 20.12L42.41 19.71C42.32 19.65 42.28 19.53 42.28 19.46C42.28 19.43 42.22 19.41 42.19 19.41C42.19 19.34 42.16 19.24 42.1 19.11C42.07 19.01 42.04 18.91 42.01 18.81C42.01 18.84 41.95 18.82 41.92 18.86C42.01 19.02 42.08 19.26 42.14 19.56C42.2 19.83 42.25 20.02 42.28 20.12ZM41.74 19.61C41.71 19.55 41.7 19.46 41.7 19.36L41.65 19.26C41.65 19.29 41.61 19.39 41.61 19.46C41.64 19.53 41.68 19.58 41.74 19.61ZM39.91 29.58L39.87 29.74C39.87 29.74 39.91 29.65 39.91 29.58ZM39.42 30.14C39.39 30.14 39.33 30.14 39.33 30.14C39.33 30.14 39.39 30.14 39.42 30.14ZM68.8 10.8L68.8 10.85L68.71 11.65L67.28 23.39L67.28 23.54C67.22 23.61 67.19 23.64 67.19 23.64L67.19 23.74L67.19 23.89C67.19 23.89 67.18 23.91 67.15 23.94C67.15 23.94 67.13 23.96 67.1 23.99C67.1 24.03 67.07 24.09 67.01 24.09L66.88 24.09L66.74 24.04L66.74 23.84L66.74 23.79C66.71 23.83 66.67 23.84 66.61 23.94L66.52 23.94C66.52 23.98 66.49 23.99 66.43 23.99L66.39 23.99C66.39 23.99 66.37 23.99 66.34 23.99C66.31 23.96 66.28 23.94 66.25 23.94L66.25 23.84L66.12 23.89C66.06 23.89 66.03 23.89 66.03 23.89C66.03 23.83 66 23.79 65.94 23.79C65.91 23.83 65.9 23.88 65.9 23.94C65.87 24.01 65.82 24.04 65.76 24.04C65.73 24.01 65.69 23.99 65.63 23.99C65.6 23.96 65.58 23.93 65.58 23.89C65.61 23.86 65.61 23.78 65.58 23.74C65.55 23.71 65.52 23.68 65.49 23.64C65.52 23.68 65.58 23.68 65.58 23.74L65.45 23.89C65.42 23.89 65.4 23.93 65.4 23.99L65.36 24.09C65.36 24.09 65.24 24.08 65.09 24.04L65.05 24.04C65.05 24.04 65.05 24.06 65.05 24.09C65.02 24.09 65 24.09 65 24.09C65 24.13 65 24.2 65 24.2L64.07 24.35C64.07 24.41 64.08 24.45 64.11 24.45C64.17 24.48 64.2 24.48 64.2 24.45L65.4 24.3C65.52 24.3 65.61 24.33 65.67 24.4C65.7 24.43 65.73 24.43 65.76 24.4C65.82 24.36 65.9 24.38 65.9 24.45L65.85 24.65C65.85 24.68 65.84 24.72 65.81 24.75L65.09 24.95C65.03 24.95 62.2 25.17 56.61 25.61C56.58 25.64 56.51 25.69 56.48 25.66C56.45 25.66 56.42 25.66 56.39 25.66L56.3 25.66C56.27 25.66 56.24 25.64 56.21 25.61C56.21 25.61 56.19 25.56 56.16 25.45C56.16 25.39 56.16 25.34 56.16 25.3C56.22 25.3 56.3 25.27 56.39 25.2C56.39 25.2 56.42 25.2 56.48 25.2C56.39 25.07 56.33 25.05 56.21 25.15L56.12 25.05C56.09 24.98 56.09 24.95 56.12 24.95L56.07 24.75C56.1 24.72 56.12 24.7 56.12 24.7C56.12 24.7 56.18 24.7 56.21 24.7C56.18 24.63 56.13 24.6 56.07 24.6C56.01 24.5 56.01 24.46 56.07 24.5C56.07 24.46 56.1 24.4 56.16 24.3C56.19 24.26 56.27 24.23 56.3 24.2L56.3 23.99C56.27 23.96 56.28 23.93 56.34 23.89C56.25 23.89 56.24 23.86 56.21 23.89C56.18 23.89 56.15 23.89 56.12 23.89C56.09 23.86 56.06 23.84 56.03 23.84C56.03 23.84 56.03 23.83 56.03 23.79L55.94 23.54L55.98 23.39C55.95 23.42 55.88 23.42 55.85 23.39C55.82 23.39 55.79 23.37 55.76 23.34C55.7 23.31 55.67 23.29 55.67 23.29C55.67 23.36 55.64 23.44 55.58 23.54C55.58 23.57 55.58 23.61 55.58 23.64C55.58 23.64 55.57 23.66 55.54 23.69C55.51 23.73 55.48 23.73 55.45 23.69L55.23 23.54C55.26 23.47 55.24 23.32 55.27 23.19C55.3 23.05 55.3 22.95 55.27 22.89C55.33 22.82 55.34 22.77 55.31 22.74C55.28 22.8 55.23 22.92 55.23 22.99C55.2 23.09 55.17 23.15 55.14 23.19C55.14 23.26 55.11 23.32 55.05 23.39C54.99 23.42 54.93 23.52 54.87 23.69C54.78 23.59 54.69 23.51 54.6 23.44L54.96 21.02C55.67 15.89 56.07 13.22 56.16 13.01C56.22 12.81 56.25 12.7 56.25 12.66C56.25 12.66 56.27 12.65 56.3 12.61L56.25 12.46C56.25 12.36 56.27 12.29 56.3 12.26L56.3 12.21C56.36 12.14 56.39 12.11 56.39 12.11C56.42 12.14 56.46 12.16 56.52 12.16C56.55 12.16 56.58 12.18 56.61 12.21L56.7 12.21C56.7 12.31 56.73 12.38 56.79 12.41C56.79 12.41 56.74 12.48 56.74 12.51L56.88 12.26C56.94 12.26 56.98 12.24 57.01 12.21L57.19 12.26L57.19 12.41C57.25 12.38 57.29 12.34 57.32 12.31C57.35 12.28 57.37 12.24 57.37 12.21C57.4 12.14 57.41 12.16 57.41 12.26C57.41 12.26 57.44 12.28 57.5 12.31C57.53 12.34 57.56 12.38 57.59 12.41L57.64 12.11C57.64 12.07 57.68 12.07 57.77 12.11C57.77 12.14 57.78 12.16 57.81 12.16C57.84 12.12 57.86 12.11 57.86 12.11L57.86 12.01C57.86 11.97 57.87 11.94 57.9 11.91C57.93 11.87 57.96 11.87 57.99 11.91L58.08 11.96C58.11 11.96 58.19 11.89 58.31 11.76C58.25 11.82 58.14 11.86 58.08 11.86C57.99 11.82 57.89 11.82 57.77 11.86C57.74 11.89 57.71 11.89 57.68 11.86C57.65 11.86 57.59 11.84 57.59 11.81L57.55 11.5C57.55 11.5 57.56 11.49 57.59 11.45L57.77 11.45C57.89 11.45 57.99 11.44 58.08 11.4L58.22 11.35L58.26 11.35C58.26 11.29 58.28 11.29 58.22 11.35C58.1 11.35 57.96 11.35 57.9 11.35L57.81 11.4L57.77 11.45L57.64 11.35L57.5 11.4C57.47 11.44 57.44 11.44 57.41 11.4L57.19 11.2C57.22 11.13 57.2 11.1 57.23 11.1C57.29 11.07 57.34 11.03 57.37 11L57.41 10.95L57.86 10.9C57.86 10.9 57.89 10.88 57.95 10.85C58.01 10.85 58.07 10.85 58.13 10.85C58.07 10.82 57.96 10.82 57.81 10.85C57.64 10.85 57.53 10.88 57.41 10.95L57.23 10.9L57.1 10.85C57.1 10.75 57.12 10.7 57.15 10.7L57.19 10.6C57.19 10.56 57.2 10.53 57.23 10.5C57.26 10.46 57.28 10.45 57.28 10.45C57.34 10.41 57.38 10.4 57.41 10.4C57.47 10.43 57.52 10.45 57.55 10.45C57.61 10.45 57.65 10.4 57.68 10.29C57.62 10.26 57.56 10.26 57.5 10.29C57.44 10.36 57.4 10.38 57.37 10.35C57.34 10.31 57.31 10.28 57.28 10.24C57.28 10.21 57.26 10.18 57.23 10.14C57.23 10.08 57.23 10.03 57.23 9.99L57.41 9.89C57.44 9.86 58.99 9.71 62.06 9.44C65.09 9.17 66.62 9.07 66.65 9.14C66.71 9.1 66.79 9.09 66.88 9.09C67 9.12 67.09 9.12 67.15 9.09C67.18 9.12 67.19 9.17 67.19 9.24C67.19 9.27 67.19 9.3 67.19 9.34C67.19 9.37 67.06 9.42 66.79 9.49C66.52 9.56 66.42 9.62 66.48 9.69C66.57 9.69 66.7 9.69 66.88 9.69C67.06 9.69 67.18 9.69 67.23 9.69C67.26 9.76 67.13 9.82 66.83 9.89C66.54 9.93 66.36 9.94 66.3 9.94L66.57 10.04C66.59 10.04 66.62 10.04 66.65 10.04C66.74 10.04 66.89 10.01 67.1 9.94C67.19 9.94 67.23 9.98 67.23 10.04C67.23 10.14 67.26 10.23 67.32 10.29C67.38 10.33 67.38 10.36 67.32 10.4C67.29 10.4 67.28 10.4 67.28 10.4L67.19 10.45C67.19 10.58 67.19 10.68 67.19 10.75L67.19 10.7L67.28 10.6L67.32 10.6C67.38 10.6 67.46 10.63 67.55 10.7L67.59 10.75C67.59 10.82 67.58 10.87 67.55 10.9C67.52 10.97 67.5 11.03 67.5 11.1L67.5 11.2C67.53 11.2 67.56 11.2 67.59 11.2C67.62 11.2 67.64 11.2 67.64 11.2C67.7 11.27 67.73 11.37 67.73 11.5C67.73 11.67 67.7 11.79 67.64 11.86C67.7 11.86 67.73 11.84 67.73 11.81C67.76 11.64 67.79 11.47 67.82 11.3C67.85 11.17 67.86 11.02 67.86 10.85C67.86 10.75 67.87 10.7 67.9 10.7C67.96 10.7 67.99 10.66 67.99 10.6C67.99 10.56 68.02 10.55 68.08 10.55C68.17 10.58 68.23 10.63 68.26 10.7L68.31 10.75L68.22 11.2L68.26 11.3C68.29 11.3 68.31 11.29 68.31 11.25C68.31 11.12 68.32 11 68.35 10.9C68.35 10.87 68.37 10.85 68.4 10.85C68.4 10.85 68.41 10.85 68.44 10.85C68.44 10.85 68.5 10.76 68.62 10.6C68.65 10.66 68.71 10.73 68.8 10.8ZM65.72 10.45L65.67 10.35L65.67 10.45L65.72 10.45ZM66.61 10.55L66.61 10.6C66.61 10.63 66.61 10.66 66.61 10.7C66.61 10.73 66.59 10.75 66.57 10.75L66.52 10.8C66.61 10.83 66.65 10.87 66.65 10.9L66.74 10.9L66.79 10.6C66.73 10.6 66.67 10.58 66.61 10.55ZM67.15 11.2L67.06 11.2L67.06 11.3C67.12 11.3 67.15 11.27 67.15 11.2ZM66.7 11.35L66.61 11.35L66.61 11.45L66.7 11.45L66.7 11.35ZM65.05 13.01L60.49 13.42L59.82 13.47L58.66 21.63C61.34 21.43 63.11 21.29 63.98 21.22L65.05 13.01ZM57.86 13.06C57.86 13.17 57.86 13.23 57.86 13.27C57.89 13.27 57.9 13.25 57.9 13.22L57.95 13.06L57.86 13.06ZM55.81 22.43L55.89 22.38L55.81 22.43ZM56.03 22.94L55.98 22.89C55.95 22.89 55.89 22.92 55.81 22.99L55.72 22.94C55.69 22.97 55.67 23.02 55.67 23.09L55.81 22.99C55.87 22.95 55.94 22.94 56.03 22.94ZM65.09 23.54C65.06 23.54 65.08 23.54 65.05 23.54L65.09 23.54ZM64.73 24.2C64.71 24.2 64.69 24.2 64.69 24.2C64.69 24.2 64.71 24.2 64.73 24.2ZM88 10.8L88 10.85L87.91 11.65L86.48 23.39L86.48 23.54C86.42 23.61 86.39 23.64 86.39 23.64L86.39 23.74L86.39 23.89C86.39 23.89 86.37 23.91 86.34 23.94C86.34 23.94 86.33 23.96 86.3 23.99C86.3 24.03 86.27 24.09 86.21 24.09L86.08 24.09L85.94 24.04L85.94 23.84L85.94 23.79C85.91 23.83 85.87 23.84 85.81 23.94L85.72 23.94C85.72 23.98 85.69 23.99 85.63 23.99L85.58 23.99C85.58 23.99 85.57 23.99 85.54 23.99C85.51 23.96 85.48 23.94 85.45 23.94L85.45 23.84L85.32 23.89C85.26 23.89 85.23 23.89 85.23 23.89C85.23 23.83 85.2 23.79 85.14 23.79C85.11 23.83 85.09 23.88 85.09 23.94C85.06 24.01 85.02 24.04 84.96 24.04C84.93 24.01 84.88 23.99 84.83 23.99C84.8 23.96 84.78 23.93 84.78 23.89C84.81 23.86 84.81 23.78 84.78 23.74C84.75 23.71 84.72 23.68 84.69 23.64C84.72 23.68 84.78 23.68 84.78 23.74L84.65 23.89C84.62 23.89 84.6 23.93 84.6 23.99L84.56 24.09C84.56 24.09 84.44 24.08 84.29 24.04L84.24 24.04C84.24 24.04 84.24 24.06 84.24 24.09C84.22 24.09 84.2 24.09 84.2 24.09C84.2 24.13 84.2 24.2 84.2 24.2L83.26 24.35C83.26 24.41 83.28 24.45 83.31 24.45C83.37 24.48 83.4 24.48 83.4 24.45L84.6 24.3C84.72 24.3 84.81 24.33 84.87 24.4C84.9 24.43 84.93 24.43 84.96 24.4C85.02 24.36 85.09 24.38 85.09 24.45L85.05 24.65C85.05 24.68 85.03 24.72 85 24.75L84.29 24.95C84.23 24.95 81.4 25.17 75.81 25.61L75.76 25.66C75.73 25.69 75.7 25.69 75.67 25.66C75.64 25.66 75.61 25.66 75.58 25.66L75.49 25.66C75.46 25.66 75.43 25.64 75.41 25.61C75.41 25.61 75.39 25.56 75.36 25.45C75.36 25.39 75.36 25.34 75.36 25.3C75.42 25.3 75.49 25.27 75.58 25.2C75.58 25.2 75.61 25.2 75.67 25.2C75.58 25.07 75.52 25.05 75.41 25.15L75.32 25.05C75.29 24.98 75.29 24.95 75.32 24.95L75.27 24.75C75.3 24.72 75.32 24.7 75.32 24.7C75.35 24.7 75.36 24.7 75.36 24.7C75.33 24.63 75.33 24.6 75.27 24.6C75.21 24.5 75.21 24.46 75.27 24.5C75.27 24.46 75.3 24.4 75.36 24.3C75.39 24.26 75.46 24.23 75.49 24.2L75.49 23.99C75.46 23.96 75.48 23.93 75.54 23.89C75.57 23.89 75.58 23.89 75.58 23.89C75.49 23.89 75.43 23.86 75.41 23.89C75.38 23.89 75.35 23.89 75.32 23.89C75.29 23.86 75.26 23.84 75.23 23.84C75.23 23.84 75.23 23.83 75.23 23.79L75.14 23.54L75.18 23.39C75.15 23.42 75.08 23.42 75.05 23.39C75.02 23.39 74.99 23.37 74.96 23.34C74.9 23.31 74.87 23.29 74.87 23.29C74.87 23.36 74.84 23.44 74.78 23.54C74.78 23.57 74.78 23.61 74.78 23.64C74.78 23.64 74.77 23.66 74.74 23.69C74.71 23.73 74.68 23.73 74.65 23.69L74.42 23.54L74.38 23.49C74.41 23.42 74.44 23.32 74.47 23.19C74.5 23.05 74.5 22.95 74.47 22.89C74.53 22.82 74.54 22.77 74.51 22.74C74.48 22.8 74.42 22.92 74.42 22.99C74.39 23.09 74.36 23.15 74.33 23.19C74.33 23.26 74.3 23.32 74.24 23.39C74.18 23.42 74.13 23.52 74.07 23.69C73.98 23.59 73.89 23.51 73.8 23.44L74.15 21.02C74.87 15.89 75.27 13.22 75.36 13.01C75.42 12.81 75.45 12.7 75.45 12.66C75.45 12.66 75.46 12.65 75.49 12.61L75.45 12.46C75.45 12.36 75.46 12.29 75.49 12.26L75.49 12.21C75.55 12.14 75.58 12.11 75.58 12.11C75.61 12.14 75.66 12.16 75.72 12.16C75.75 12.16 75.78 12.18 75.81 12.21L75.9 12.21C75.9 12.31 75.93 12.38 75.99 12.41C75.96 12.41 75.94 12.43 75.94 12.46C75.94 12.46 75.94 12.48 75.94 12.51L75.99 12.51L76.07 12.26C76.13 12.26 76.18 12.24 76.21 12.21L76.25 12.21L76.39 12.26C76.39 12.26 76.4 12.26 76.43 12.26L76.39 12.41C76.45 12.38 76.49 12.34 76.52 12.31C76.55 12.28 76.57 12.24 76.57 12.21C76.6 12.14 76.61 12.16 76.61 12.26C76.61 12.26 76.64 12.28 76.7 12.31C76.73 12.34 76.76 12.38 76.79 12.41L76.83 12.11C76.83 12.07 76.88 12.07 76.97 12.11C76.97 12.14 76.98 12.16 77.01 12.16C77.04 12.12 77.06 12.11 77.06 12.11L77.06 12.01C77.06 11.97 77.07 11.94 77.1 11.91C77.13 11.87 77.16 11.87 77.19 11.91L77.28 11.96C77.31 11.96 77.38 11.89 77.5 11.76C77.44 11.82 77.34 11.86 77.28 11.86C77.19 11.82 77.09 11.82 76.97 11.86C76.94 11.89 76.91 11.89 76.88 11.86C76.85 11.86 76.83 11.86 76.83 11.86C76.8 11.86 76.79 11.84 76.79 11.81L76.74 11.5C76.74 11.5 76.76 11.49 76.79 11.45L76.97 11.45C77.09 11.45 77.19 11.44 77.28 11.4L77.41 11.35L77.46 11.35C77.46 11.29 77.47 11.29 77.41 11.35C77.3 11.35 77.16 11.35 77.1 11.35L77.01 11.4L76.97 11.45L76.83 11.35L76.7 11.4C76.67 11.44 76.64 11.44 76.61 11.4L76.39 11.2C76.42 11.13 76.4 11.1 76.43 11.1C76.49 11.07 76.54 11.03 76.57 11L76.61 10.95L77.06 10.9C77.06 10.9 77.09 10.88 77.15 10.85C77.21 10.85 77.27 10.85 77.32 10.85C77.27 10.82 77.16 10.82 77.01 10.85C76.83 10.85 76.73 10.88 76.61 10.95L76.43 10.9L76.3 10.85C76.3 10.75 76.31 10.7 76.34 10.7L76.39 10.6C76.39 10.56 76.4 10.53 76.43 10.5C76.46 10.46 76.48 10.45 76.48 10.45C76.54 10.41 76.58 10.4 76.61 10.4C76.67 10.43 76.71 10.45 76.74 10.45C76.8 10.45 76.85 10.4 76.88 10.29C76.82 10.26 76.76 10.26 76.7 10.29C76.64 10.36 76.6 10.38 76.57 10.35C76.54 10.31 76.51 10.28 76.48 10.24C76.48 10.21 76.46 10.18 76.43 10.14C76.43 10.08 76.43 10.03 76.43 9.99L76.61 9.89C76.64 9.86 78.19 9.71 81.25 9.44C84.29 9.17 85.82 9.07 85.85 9.14C85.91 9.1 85.99 9.09 86.08 9.09C86.19 9.12 86.28 9.12 86.34 9.09C86.37 9.12 86.39 9.17 86.39 9.24C86.39 9.27 86.39 9.3 86.39 9.34C86.39 9.37 86.25 9.42 85.99 9.49C85.72 9.56 85.61 9.62 85.67 9.69C85.76 9.69 85.9 9.69 86.08 9.69C86.25 9.69 86.37 9.69 86.43 9.69C86.46 9.76 86.33 9.82 86.03 9.89C85.73 9.93 85.55 9.94 85.49 9.94L85.76 10.04C85.79 10.04 85.82 10.04 85.85 10.04C85.94 10.04 86.09 10.01 86.3 9.94C86.39 9.94 86.43 9.98 86.43 10.04C86.43 10.14 86.46 10.23 86.52 10.29C86.58 10.33 86.58 10.36 86.52 10.4C86.49 10.4 86.48 10.4 86.48 10.4L86.39 10.45C86.39 10.58 86.39 10.68 86.39 10.75L86.39 10.7L86.48 10.6L86.52 10.6C86.58 10.6 86.66 10.63 86.74 10.7L86.79 10.75C86.79 10.82 86.77 10.87 86.74 10.9C86.72 10.97 86.7 11.03 86.7 11.1L86.7 11.2C86.73 11.2 86.76 11.2 86.79 11.2C86.82 11.2 86.83 11.2 86.83 11.2C86.89 11.27 86.92 11.37 86.92 11.5C86.92 11.67 86.89 11.79 86.83 11.86C86.89 11.86 86.92 11.84 86.92 11.81C86.95 11.64 86.98 11.47 87.01 11.3C87.04 11.17 87.06 11.02 87.06 10.85C87.06 10.75 87.07 10.7 87.1 10.7C87.16 10.7 87.19 10.66 87.19 10.6C87.19 10.56 87.22 10.55 87.28 10.55C87.37 10.58 87.43 10.63 87.46 10.7L87.5 10.75L87.41 11.2L87.46 11.3C87.49 11.3 87.5 11.29 87.5 11.25C87.5 11.12 87.52 11 87.55 10.9C87.55 10.87 87.56 10.85 87.59 10.85C87.59 10.85 87.61 10.85 87.64 10.85C87.64 10.85 87.7 10.76 87.82 10.6C87.85 10.66 87.91 10.73 88 10.8ZM84.91 10.45L84.87 10.35L84.87 10.45L84.91 10.45ZM85.81 10.55L85.81 10.6C85.81 10.63 85.81 10.66 85.81 10.7C85.81 10.73 85.79 10.75 85.76 10.75L85.72 10.8C85.81 10.83 85.85 10.87 85.85 10.9L85.94 10.9L85.99 10.6C85.93 10.6 85.87 10.58 85.81 10.55ZM86.34 11.2L86.25 11.2L86.25 11.3C86.31 11.3 86.34 11.27 86.34 11.2ZM85.9 11.35L85.81 11.35L85.81 11.45L85.9 11.45L85.9 11.35ZM84.24 13.01L79.69 13.42L79.02 13.47L77.86 21.63C80.54 21.43 82.31 21.29 83.17 21.22L84.24 13.01ZM77.06 13.06C77.06 13.17 77.06 13.23 77.06 13.27C77.09 13.27 77.1 13.25 77.1 13.22L77.15 13.06L77.06 13.06ZM75 22.43L75.09 22.38L75 22.43ZM75.23 22.94L75.18 22.89C75.15 22.89 75.09 22.92 75 22.99L74.91 22.94C74.88 22.97 74.87 23.02 74.87 23.09L75 22.99C75.06 22.95 75.14 22.94 75.23 22.94ZM84.29 23.54C84.26 23.54 84.27 23.54 84.24 23.54L84.29 23.54ZM83.93 24.2C83.9 24.2 83.89 24.2 83.89 24.2C83.89 24.2 83.9 24.2 83.93 24.2Z" fill="#FF6B1F" fill-opacity="1.000000" fill-rule="nonzero"/>
	<path id="pathSlqx9hducha3" d="M9.37 0.67L9.42 0.83L6.25 24.55C6.25 24.58 6.25 24.62 6.25 24.65C6.22 24.68 6.19 24.7 6.16 24.7C6.1 24.73 6.03 24.77 5.94 24.8C5.91 24.77 5.89 24.75 5.89 24.75C5.86 24.78 5.85 24.8 5.85 24.8C5.82 24.8 5.8 24.82 5.8 24.85C5.8 24.85 5.85 24.92 5.85 24.95C5.85 24.95 5.85 24.97 5.85 25C5.79 24.97 5.71 25 5.62 25.1L5.49 25C5.43 24.87 5.43 24.72 5.49 24.55C5.46 24.51 5.43 24.51 5.4 24.55C5.4 24.55 5.4 24.57 5.4 24.6C5.31 24.83 5.28 25 5.31 25.1C5.37 25.14 5.37 25.17 5.31 25.2C5.25 25.2 5.16 25.25 5.04 25.35C4.92 25.35 4.89 25.32 4.95 25.25L4.95 24.95C4.95 24.82 4.95 24.72 4.95 24.65C4.95 24.58 4.97 24.5 5 24.4C4.94 24.4 4.91 24.36 4.91 24.3L4.91 23.54C4.88 23.47 4.88 23.47 4.82 23.54C4.79 23.74 4.76 24.01 4.73 24.35C4.7 24.65 4.69 24.92 4.69 25.15C4.69 25.19 4.63 25.2 4.51 25.2C4.48 25.2 4.45 25.2 4.42 25.2C4.39 25.2 4.36 25.2 4.33 25.2C4.39 25.14 4.34 24.98 4.28 24.85C4.28 24.51 4.31 24.2 4.37 23.89C4.34 23.93 4.28 23.99 4.28 24.09C4.31 24.16 4.33 24.23 4.33 24.3C4.3 24.36 4.27 24.43 4.24 24.5C4.24 24.53 4.23 24.58 4.2 24.65L3.88 24.7C3.88 24.67 3.85 24.6 3.88 24.6C3.88 24.53 3.88 24.45 3.88 24.35C3.88 24.25 3.88 24.18 3.88 24.15C3.88 24.11 3.88 24.08 3.88 24.04L3.75 23.99C3.72 23.89 3.7 23.74 3.7 23.54C3.7 23.37 3.72 23.24 3.75 23.14C3.75 23.14 3.72 23.19 3.66 23.29C3.6 23.79 3.57 24.16 3.57 24.4C3.57 24.5 3.54 24.6 3.48 24.7C3.45 24.7 3.44 24.72 3.44 24.75C3.41 24.78 3.38 24.83 3.35 24.8C3.23 24.73 3.14 24.7 3.08 24.7C3.14 24.36 3.15 24.09 3.12 23.99C3.18 23.93 3.2 23.89 3.17 23.89C3.14 23.99 3.08 24.09 3.08 24.2C3.05 24.26 3.02 24.31 2.99 24.35C2.99 24.41 2.98 24.48 2.95 24.55C2.89 24.58 2.83 24.68 2.77 24.85C2.71 24.78 2.62 24.72 2.5 24.65C2.5 24.62 2.5 24.55 2.5 24.55L3.21 19.01C3.42 17.53 3.87 14.27 4.55 9.24C5.21 4.17 5.56 1.55 5.62 1.38C5.68 1.21 5.71 1.09 5.71 1.03L5.71 0.88C5.68 0.78 5.68 0.69 5.71 0.62C5.74 0.56 5.77 0.52 5.8 0.52C5.83 0.56 5.88 0.57 5.94 0.57C5.97 0.61 6.04 0.61 6.07 0.57C6.07 0.64 6.12 0.74 6.2 0.78C6.2 0.81 6.16 0.84 6.16 0.88L6.29 0.62C6.35 0.62 6.4 0.61 6.43 0.57L6.47 0.57L6.61 0.62L6.61 0.73C6.64 0.73 6.67 0.69 6.7 0.62C6.73 0.59 6.76 0.56 6.78 0.52C6.81 0.49 6.83 0.51 6.83 0.57C6.89 0.61 6.98 0.69 7.01 0.73L7.05 0.47C7.05 0.41 7.08 0.41 7.14 0.47C7.17 0.47 7.2 0.47 7.23 0.47C7.26 0.44 7.29 0.42 7.32 0.42C7.35 0.46 7.37 0.52 7.37 0.62C7.37 0.73 7.35 0.93 7.32 1.23C7.29 1.56 7.29 1.75 7.32 1.78L7.37 1.83L7.37 1.63C7.37 1.46 7.38 1.25 7.41 0.98C7.44 0.74 7.45 0.54 7.45 0.37C7.45 0.34 7.47 0.32 7.5 0.32C7.5 0.29 7.51 0.26 7.54 0.22C7.54 0.22 7.56 0.22 7.59 0.22L7.86 0.22L7.9 0.32C7.9 0.42 7.87 0.67 7.81 1.08C7.72 1.45 7.69 1.67 7.72 1.73C7.72 1.77 7.75 1.78 7.81 1.78L7.68 1.88C7.77 1.88 7.81 1.87 7.81 1.83C7.81 1.8 7.81 1.82 7.81 1.78C7.78 1.72 7.78 1.6 7.81 1.53L7.81 1.43L7.95 0.47C7.92 0.37 7.92 0.32 7.95 0.32C7.92 0.29 7.9 0.24 7.9 0.17L7.95 0.17C7.98 0.1 8.03 0.05 8.12 0.02C8.18 -0.01 8.21 -0.01 8.21 0.02C8.21 0.05 8.24 0.07 8.3 0.07C8.36 0.1 8.39 0.15 8.39 0.22C8.42 0.22 8.44 0.22 8.44 0.22C8.32 0.96 8.26 1.41 8.26 1.58C8.26 1.65 8.26 1.7 8.26 1.73L8.26 1.83C8.26 1.73 8.26 1.62 8.26 1.58C8.29 1.41 8.33 1.23 8.39 0.93C8.42 0.62 8.41 0.39 8.44 0.22C8.47 0.19 8.5 0.1 8.53 0.07C8.53 0.07 8.54 0.05 8.57 0.02L8.7 0.07L8.79 0.17C8.82 0.2 8.84 0.22 8.84 0.22C8.84 0.26 8.85 0.27 8.88 0.27L8.79 0.47C8.79 0.57 8.81 0.62 8.84 0.62C8.93 0.59 8.97 0.56 8.97 0.52C8.97 0.42 8.97 0.37 8.97 0.37C9 0.34 9.03 0.32 9.06 0.32L9.29 0.32C9.29 0.39 9.3 0.44 9.33 0.47C9.36 0.44 9.42 0.51 9.42 0.57C9.42 0.61 9.4 0.64 9.37 0.67ZM28.84 22.58L28.84 22.84C28.84 22.87 28.84 22.9 28.84 22.94C28.81 22.97 28.78 22.99 28.75 22.99L28.26 23.04C28.26 23.07 24.09 23.57 15.76 24.55L15.67 24.55C15.67 24.55 15.64 24.55 15.58 24.55C15.55 24.55 15.52 24.57 15.49 24.6C15.46 24.6 15.45 24.58 15.45 24.55C15.45 24.55 15.43 24.53 15.4 24.5C15.4 24.46 15.39 24.45 15.36 24.45C15.39 24.38 15.39 24.33 15.36 24.3C15.42 24.26 15.49 24.23 15.49 24.2L15.62 24.15C15.57 24.01 15.49 24.04 15.4 24.15C15.37 24.15 15.34 24.13 15.31 24.09L15.27 24.04C15.27 24.04 15.25 23.98 15.22 23.94C15.22 23.91 15.24 23.88 15.27 23.84L15.31 23.79C15.31 23.79 15.33 23.79 15.36 23.79C15.33 23.73 15.31 23.64 15.31 23.64L15.22 23.64C15.16 23.57 15.15 23.54 15.18 23.54L15.27 23.39C15.3 23.39 15.33 23.32 15.36 23.29L15.36 23.14C15.36 23.04 15.39 22.99 15.45 22.99C15.57 22.92 15.64 22.85 15.67 22.79L15.62 22.79C15.62 22.85 15.59 22.89 15.54 22.89L15.4 22.94C15.28 23.14 15.21 23.29 15.18 23.39C15.15 23.42 15.12 23.44 15.09 23.44C15.06 23.41 15.03 23.39 15 23.39C14.97 23.32 14.91 23.29 14.82 23.29C14.79 23.22 14.79 23.19 14.82 23.19C14.91 23.15 14.96 23.09 14.96 22.99L15.04 22.84L15.04 22.74L15 22.74L14.96 22.79C14.9 22.75 14.85 22.72 14.82 22.68C14.76 22.65 14.73 22.63 14.73 22.63C14.73 22.6 14.72 22.57 14.69 22.53C14.69 22.5 14.75 22.42 14.78 22.38C14.81 22.35 14.82 22.3 14.82 22.23L14.87 22.23L14.91 22.23L14.91 22.18L14.82 22.23L14.73 22.23C14.73 22.23 14.7 22.18 14.64 22.08L14.51 22.23C14.51 22.33 14.46 22.38 14.37 22.38C14.37 22.45 14.33 22.5 14.24 22.53C14.21 22.53 14.2 22.52 14.2 22.48C14.2 22.48 14.2 22.47 14.2 22.43C14.17 22.37 14.15 22.3 14.15 22.23L14.15 22.13C14.15 22.13 14.18 22.1 14.24 22.03C14.3 22 14.34 21.93 14.37 21.83L14.42 21.78C14.39 21.74 14.37 21.74 14.37 21.78C14.37 21.78 14.37 21.79 14.37 21.83C14.34 21.83 14.3 21.86 14.24 21.93C14.21 21.96 14.18 21.96 14.15 21.93C14.15 21.96 14.14 22 14.11 22.03C14.05 22.06 14.02 22.08 14.02 22.08L13.97 22.08C13.88 22.08 13.81 22.11 13.75 22.18C13.75 21.98 13.72 21.86 13.66 21.83C13.66 21.79 13.66 21.78 13.66 21.78C14.23 21.17 15.31 20.02 16.92 18.3C18.53 16.59 20.21 14.83 21.96 13.01L15.98 13.57C15.98 13.57 15.95 13.57 15.89 13.57C15.86 13.6 15.82 13.6 15.76 13.57C15.73 13.57 15.67 13.57 15.67 13.57C15.67 13.53 15.65 13.5 15.62 13.47C15.62 13.43 15.62 13.33 15.62 13.27C15.71 13.23 15.76 13.2 15.76 13.17L15.85 13.12C15.85 13.15 15.86 13.17 15.89 13.17C15.83 13 15.77 12.98 15.71 13.12L15.62 13.12C15.57 13.12 15.55 13.08 15.58 13.01C15.61 12.98 15.62 12.95 15.62 12.91C15.59 12.85 15.59 12.8 15.62 12.76C15.62 12.73 15.65 12.71 15.71 12.71C15.62 12.61 15.58 12.56 15.58 12.56C15.52 12.49 15.52 12.46 15.58 12.46L15.62 12.31C15.65 12.31 15.68 12.29 15.71 12.26L15.76 12.06C15.76 11.96 15.8 11.89 15.89 11.86L15.98 11.86C15.92 11.86 15.83 11.87 15.71 11.91C15.68 11.94 15.65 11.94 15.62 11.91C15.62 11.87 15.61 11.86 15.58 11.86L15.49 11.6C15.52 11.57 15.54 11.55 15.54 11.55C15.59 11.52 15.67 11.5 15.76 11.5L15.71 11.45L15.54 11.45C15.51 11.49 15.43 11.5 15.4 11.5C15.37 11.47 15.34 11.44 15.31 11.4C15.31 11.4 15.3 11.39 15.27 11.35C15.21 11.35 15.19 11.35 15.22 11.35C15.25 11.29 15.31 11.2 15.4 11.1L15.76 11C15.79 11.03 15.86 10.98 15.98 10.85C15.95 10.85 15.91 10.87 15.85 10.9C15.79 10.93 15.76 10.95 15.76 10.95C15.7 10.95 15.58 11 15.4 11.1L15.31 11.1C15.31 11.07 15.28 11.02 15.22 10.95C15.19 10.92 15.19 10.88 15.22 10.85C15.22 10.85 15.22 10.83 15.22 10.8L15.22 10.7C15.22 10.63 15.27 10.6 15.36 10.6C15.39 10.6 15.42 10.6 15.45 10.6C15.48 10.56 15.51 10.55 15.54 10.55C15.59 10.55 15.62 10.51 15.62 10.45C15.57 10.45 15.54 10.45 15.54 10.45C15.45 10.48 15.4 10.46 15.4 10.4C15.37 10.36 15.36 10.31 15.36 10.24C15.39 10.21 15.39 10.18 15.36 10.14C15.39 10.14 15.42 10.11 15.45 10.04C22.44 9.3 25.95 9 25.98 9.14C26.01 9.1 26.07 9.09 26.16 9.09C26.25 9.09 26.32 9.07 26.38 9.04C26.38 9.1 26.38 9.15 26.38 9.19C26.41 9.25 26.43 9.29 26.43 9.29C26.43 9.29 26.31 9.32 26.07 9.39C25.86 9.49 25.77 9.56 25.8 9.59C25.89 9.62 26.01 9.62 26.16 9.59C26.31 9.56 26.4 9.56 26.43 9.59C26.43 9.66 26.34 9.71 26.16 9.74C25.95 9.81 25.8 9.86 25.71 9.89L25.89 9.94C25.92 9.98 25.95 9.99 25.98 9.99C25.98 9.99 25.98 9.98 25.98 9.94C26.04 9.94 26.12 9.93 26.21 9.89C26.27 9.82 26.31 9.81 26.34 9.84C26.4 9.81 26.43 9.81 26.43 9.84C26.43 9.91 26.43 9.96 26.43 9.99L26.47 10.19L26.47 10.29C26.41 10.36 26.31 10.4 26.16 10.4C26.13 10.4 26.1 10.41 26.07 10.45C26.04 10.48 26.01 10.5 25.98 10.5C25.98 10.56 25.95 10.63 25.89 10.7C25.95 10.73 25.98 10.75 25.98 10.75L26.43 10.65C26.49 10.65 26.52 10.66 26.52 10.7C26.52 10.7 26.53 10.73 26.56 10.8C26.56 10.87 26.56 10.9 26.56 10.9L26.47 10.95L26.47 11.1C26.47 11.1 26.46 11.12 26.43 11.15C26.4 11.18 26.35 11.23 26.3 11.3L26.3 11.45L26.52 11.15C26.52 11.12 26.53 11.08 26.56 11.05L26.56 10.9C26.68 10.87 26.76 10.92 26.79 10.95C26.88 10.95 26.91 10.95 26.88 10.95C26.88 10.98 26.91 11.03 26.96 11.1C26.99 11.13 26.99 11.17 26.96 11.2C26.96 11.23 26.91 11.35 26.7 11.55C26.52 11.76 26.4 11.92 26.34 12.06C26.4 12.02 26.52 11.91 26.7 11.71C26.88 11.47 26.99 11.34 27.05 11.3L26.96 11.2C26.96 11.2 27.07 11.2 27.19 11.2C27.22 11.23 27.26 11.29 27.32 11.35C27.29 11.35 27.28 11.37 27.28 11.4C27.25 11.4 27.23 11.42 27.23 11.45C27.23 11.45 27.23 11.47 27.23 11.5C27.2 11.5 27.16 11.54 27.1 11.6L27.1 11.81L27.23 11.76C27.23 11.72 27.28 11.69 27.37 11.65C27.49 11.72 27.56 11.76 27.59 11.76C27.59 11.82 27.59 11.86 27.59 11.86C27.59 11.89 27.59 11.92 27.59 11.96C27.62 11.96 27.62 11.97 27.59 12.01C27.59 12.04 27.56 12.06 27.5 12.06L27.46 12.11L19.73 20.52C25.39 19.75 28.23 19.41 28.26 19.51C28.29 19.48 28.36 19.46 28.48 19.46C28.57 19.46 28.65 19.44 28.71 19.41C28.71 19.48 28.71 19.53 28.71 19.56C28.71 19.63 28.72 19.66 28.75 19.66C28.75 19.7 28.63 19.73 28.39 19.76C28.13 19.83 28.01 19.88 28.04 19.91C28.13 19.95 28.24 19.95 28.39 19.91C28.54 19.91 28.65 19.91 28.71 19.91C28.74 19.98 28.65 20.07 28.44 20.17C28.26 20.23 28.11 20.27 27.99 20.27L28.17 20.37C28.2 20.4 28.23 20.42 28.26 20.42C28.26 20.42 28.26 20.4 28.26 20.37C28.32 20.37 28.38 20.35 28.44 20.32C28.53 20.28 28.6 20.27 28.66 20.27C28.72 20.27 28.75 20.3 28.75 20.37L28.8 20.57L28.8 20.67C28.74 20.74 28.68 20.77 28.62 20.77C28.53 20.8 28.45 20.82 28.39 20.82L28.21 20.87C28.24 20.94 28.23 21.01 28.17 21.07C28.05 21.14 27.86 21.17 27.59 21.17C27.59 21.27 27.6 21.36 27.63 21.32C27.81 21.26 28.01 21.21 28.21 21.17C28.39 21.11 28.57 21.06 28.75 21.02C28.81 21.02 28.84 21.04 28.84 21.07C28.84 21.07 28.85 21.11 28.88 21.17C28.88 21.27 28.9 21.32 28.93 21.32C28.96 21.32 28.93 21.36 28.84 21.43C28.72 21.46 28.66 21.48 28.66 21.48C28.72 21.48 28.47 21.56 27.9 21.73C27.9 21.76 27.9 21.83 27.9 21.83C27.9 21.83 27.9 21.76 27.9 21.73C27.96 21.73 28.08 21.74 28.26 21.68C28.32 21.68 28.38 21.66 28.44 21.63C28.5 21.59 28.54 21.59 28.57 21.63L28.62 21.63L28.62 22.03C28.53 22.06 28.47 22.1 28.44 22.13C28.38 22.13 28.32 22.15 28.26 22.18C28.23 22.18 28.17 22.18 28.17 22.18L28.21 22.38L27.41 22.53C27.41 22.6 27.43 22.65 27.46 22.68C27.46 22.72 27.47 22.72 27.5 22.68L28.57 22.48C28.6 22.48 28.62 22.48 28.62 22.48C28.62 22.52 28.65 22.53 28.71 22.53L28.84 22.53C28.9 22.5 28.9 22.52 28.84 22.58ZM25.67 10.75L25.63 10.8L25.63 10.85L25.67 10.75ZM25.76 11.35L25.85 11.35C25.85 11.29 25.85 11.25 25.85 11.25L25.8 11.25L25.76 11.35ZM16.07 11.45C16.07 11.39 16.04 11.35 15.98 11.35C15.92 11.35 15.86 11.4 15.8 11.5L15.94 11.45C15.94 11.45 16.04 11.42 16.07 11.45ZM25.89 11.81C25.92 11.84 25.94 11.87 25.94 11.91C25.94 11.87 25.97 11.82 26.03 11.76C26.06 11.76 26.07 11.76 26.07 11.76L26.07 11.65L26.03 11.76L25.89 11.81ZM16.07 11.76L16.03 11.86L16.07 11.76ZM25.94 12.01L25.94 11.91L25.85 11.91L25.94 12.01ZM25.85 11.91L25.94 12.01C25.94 12.04 25.91 11.97 25.85 11.91ZM15 21.63C15 21.63 15.01 21.61 15.04 21.58L15 21.63ZM46.47 10.4C46.33 10.87 46.24 11.18 46.21 11.25L38.48 30.39L38.44 30.54C38.41 30.54 38.38 30.54 38.35 30.54C38.32 30.58 38.32 30.61 38.35 30.64C38.29 30.64 38.26 30.64 38.26 30.64C38.26 30.71 38.26 30.74 38.26 30.74C38.23 30.74 38.22 30.81 38.22 30.84L38.22 30.94C38.25 30.98 38.2 31 38.08 31C38.05 31 38.01 30.96 37.95 30.89C37.86 30.79 37.81 30.74 37.81 30.74L37.86 30.69L37.86 30.54C37.77 30.54 37.75 30.54 37.72 30.64L37.68 30.64C37.68 30.64 37.65 30.64 37.59 30.64L37.5 30.64C37.47 30.58 37.41 30.54 37.32 30.54L37.32 30.44C37.32 30.41 37.28 30.39 37.19 30.39C37.25 30.36 37.19 30.27 37.1 30.24C37.07 30.24 37.05 30.27 37.05 30.34C37.02 30.37 37 30.39 36.97 30.39C36.91 30.39 36.88 30.39 36.88 30.39C36.85 30.32 36.8 30.29 36.74 30.29C36.71 30.26 36.71 30.22 36.74 30.19C36.8 30.12 36.82 30.07 36.79 30.04C36.79 30 36.76 29.97 36.7 29.94C36.73 30 36.71 30.05 36.65 30.09C36.62 30.12 36.56 30.21 36.56 30.24C36.56 30.27 36.53 30.29 36.47 30.29L36.43 30.39C36.4 30.39 36.37 30.34 36.34 30.24C36.31 30.17 36.27 30.14 36.21 30.14C36.24 30.11 36.25 30.05 36.25 29.99L36.21 30.14C36.15 30.17 36.04 30.17 35.98 30.14C35.92 30.14 35.88 30.14 35.85 30.14L35.8 29.99L35.8 29.94C35.8 29.8 35.82 29.69 35.85 29.58C35.85 29.55 35.86 29.52 35.89 29.48C35.89 29.48 35.91 29.48 35.94 29.48L35.89 29.43L35.85 29.58C35.82 29.69 35.8 29.8 35.8 29.94C35.8 29.97 35.8 29.99 35.8 29.99C35.8 29.99 35.74 29.97 35.72 29.94C35.69 29.9 35.66 29.9 35.63 29.94L35.49 29.94C35.46 29.94 35.45 29.9 35.45 29.84L35.36 29.69C35.36 29.65 35.37 29.6 35.4 29.53L35.4 29.33C35.34 29.33 35.27 29.33 35.27 29.33C35.27 29.4 35.27 29.43 35.27 29.43C35.24 29.43 35.21 29.43 35.18 29.43C35.12 29.4 35.08 29.4 35.05 29.43C35.05 29.37 35.02 29.3 34.96 29.23C34.96 29.17 34.97 29.13 35 29.13C35.06 29.13 35.09 29.11 35.09 29.08L38.62 20.37C38.59 20.37 38.54 20.38 38.48 20.42C38.48 20.42 38.48 20.38 38.48 20.32C38.48 20.28 38.45 20.23 38.39 20.17C38.3 20.07 38.25 19.95 38.22 19.81C38.19 19.88 38.17 19.95 38.17 20.02L38.26 20.12L37.99 20.17L37.9 20.17C37.84 20 37.81 19.85 37.81 19.71C37.78 19.68 37.71 19.63 37.68 19.66L37.59 19.66L37.32 19.06C37.35 19.06 37.37 19.08 37.37 19.11C37.46 19.55 37.52 19.88 37.55 20.12C37.63 20.22 37.66 20.28 37.63 20.32C37.63 20.32 37.63 20.33 37.63 20.37C37.66 20.4 37.65 20.45 37.59 20.52C37.5 20.55 37.44 20.55 37.41 20.52C37.38 20.52 37.34 20.54 37.28 20.57L37.28 20.47C37.28 20.3 37.22 20.12 37.1 19.91C37.13 19.91 37.16 19.9 37.19 19.86C37.19 19.83 37.17 19.81 37.14 19.81C37.11 19.85 37.07 19.86 37.1 19.86C37.1 19.96 37.11 20.05 37.14 20.12C37.17 20.18 37.17 20.23 37.14 20.27C37.17 20.27 37.19 20.3 37.19 20.37C37.16 20.4 37.14 20.42 37.14 20.42C37.11 20.49 37.1 20.55 37.1 20.62C37.1 20.65 37.1 20.69 37.1 20.72C37.01 20.79 36.91 20.79 36.79 20.72C36.82 20.69 36.52 19.95 35.98 18.61C35.48 17.23 35.09 16.2 34.82 15.53C33.93 13.22 33.47 11.99 33.44 11.86C33.44 11.76 33.44 11.67 33.44 11.6C33.44 11.54 33.44 11.49 33.44 11.45L33.44 11.35C33.44 11.32 33.41 11.3 33.35 11.3C33.35 11.27 33.33 11.23 33.3 11.2C33.3 11.17 33.32 11.13 33.35 11.1L33.3 11.05C33.3 10.98 33.3 10.95 33.3 10.95C33.33 11.02 33.38 11.02 33.44 10.95C33.53 10.92 33.57 10.9 33.57 10.9C33.57 10.9 33.63 10.97 33.75 11C33.69 11.03 33.68 11.07 33.71 11.1L33.8 11.1C33.8 11 33.78 10.92 33.75 10.85L33.8 10.7L33.88 10.7L34.02 10.7L34.11 10.8L34.11 10.6C34.11 10.53 34.11 10.5 34.11 10.5C34.14 10.53 34.15 10.56 34.15 10.6C34.15 10.6 34.23 10.61 34.38 10.65L34.29 10.4C34.26 10.33 34.29 10.31 34.38 10.35C34.38 10.35 34.39 10.33 34.42 10.29C34.45 10.26 34.47 10.24 34.47 10.24C34.52 10.24 34.58 10.29 34.64 10.4L34.69 10.5L34.6 10.19C34.6 10.09 34.61 10.04 34.64 10.04C34.64 10.04 34.64 10.03 34.64 9.99C34.7 9.93 34.79 9.89 34.91 9.89C35.06 10.56 35.22 11.02 35.31 11.15C35.31 11.15 35.34 11.15 35.4 11.15C35.31 11.08 35.27 11.02 35.27 10.95L35.05 10.04C35.02 9.98 35.02 9.94 35.05 9.94C34.99 9.91 34.96 9.88 34.96 9.84C34.96 9.81 34.96 9.79 34.96 9.79L35.05 9.59C35.11 9.56 35.13 9.54 35.13 9.54C35.16 9.57 35.19 9.59 35.22 9.59C35.28 9.59 35.31 9.61 35.31 9.64C35.34 9.71 35.43 9.89 35.49 10.19C35.58 10.53 35.64 10.75 35.67 10.85C35.73 10.92 35.76 10.95 35.76 10.95C35.76 10.95 35.73 10.9 35.67 10.8C35.64 10.66 35.55 10.46 35.49 10.19C35.43 9.93 35.43 9.72 35.4 9.59L35.4 9.39C35.46 9.35 35.52 9.35 35.58 9.39C35.58 9.39 35.64 9.42 35.67 9.49C35.73 9.52 35.76 9.52 35.76 9.49C35.76 9.52 35.76 9.59 35.76 9.69C35.79 9.72 35.83 9.74 35.89 9.74C35.92 9.74 35.92 9.72 35.89 9.69C35.86 9.62 35.86 9.54 35.89 9.54C35.89 9.51 35.89 9.47 35.89 9.44C36.01 9.4 36.07 9.37 36.07 9.34C36.13 9.37 36.16 9.4 36.16 9.44C36.19 9.44 36.25 9.46 36.25 9.49C36.28 9.52 36.28 9.54 36.25 9.54C36.34 9.64 36.38 9.69 36.38 9.69L39.51 18.1L43.08 9.24C43.14 9.17 43.2 9.14 43.26 9.14C43.29 9.14 43.32 9.14 43.35 9.14C43.38 9.17 43.41 9.17 43.44 9.14C43.41 9.24 43.41 9.39 43.35 9.59C43.29 9.82 43.28 9.96 43.3 9.99C43.28 9.96 43.33 9.82 43.48 9.59C43.6 9.35 43.71 9.19 43.8 9.09C43.8 9.12 43.83 9.14 43.8 9.14C43.86 9.24 43.86 9.37 43.8 9.54L43.93 9.54C44.05 9.37 44.11 9.22 44.11 9.09C44.17 9.09 44.24 9.04 44.24 9.04C44.27 9.07 44.3 9.09 44.33 9.09C44.36 9.09 44.36 9.12 44.33 9.19C44.33 9.25 44.35 9.32 44.38 9.39C44.38 9.49 44.36 9.57 44.33 9.64C44.3 9.67 44.27 9.71 44.24 9.74C44.27 9.77 44.3 9.84 44.33 9.94C44.27 10.08 44.24 10.24 44.24 10.45C44.21 10.45 44.15 10.45 44.15 10.45C44.21 10.48 44.24 10.5 44.24 10.5C44.24 10.46 44.24 10.45 44.24 10.45C44.3 10.14 44.44 9.79 44.64 9.39C44.67 9.39 44.73 9.39 44.82 9.39L44.96 9.39C45.02 9.39 45.03 9.42 45 9.49C45.03 9.52 45.03 9.57 45 9.64C44.94 9.71 44.88 9.81 44.82 9.94C44.76 10.11 44.73 10.23 44.73 10.29L44.69 10.4C44.75 10.43 44.78 10.41 44.78 10.35C44.78 10.18 44.79 10.08 44.82 10.04C44.85 10.01 44.88 9.96 44.91 9.89C44.91 9.82 44.94 9.79 45 9.79L45.05 9.84C45.11 9.94 45.18 9.99 45.27 9.99C45.27 10.03 45.27 10.04 45.27 10.04C45.18 10.21 45.14 10.31 45.14 10.35C45.14 10.38 45.15 10.41 45.18 10.45C45.21 10.48 45.19 10.5 45.22 10.5L45.27 10.65C45.27 10.75 45.22 10.92 45.14 11.15C45.19 11.18 45.22 11.18 45.22 11.15C45.22 11.15 45.31 10.83 45.49 10.19C45.58 10.09 45.63 10.04 45.63 10.04C45.75 10.04 45.78 10.03 45.72 9.99C45.72 9.96 45.75 9.94 45.81 9.94C45.83 9.98 45.86 10.01 45.89 10.04C45.92 10.11 45.94 10.16 45.94 10.19C45.94 10.19 45.94 10.21 45.94 10.24C45.94 10.24 45.94 10.26 45.94 10.29C45.94 10.33 45.92 10.38 45.89 10.45C45.86 10.51 45.85 10.6 45.85 10.7L45.85 10.85L46.03 10.4L46.07 10.35C46.1 10.35 46.18 10.29 46.3 10.19C46.3 10.26 46.33 10.29 46.39 10.29C46.42 10.33 46.44 10.36 46.47 10.4ZM43.53 9.19L43.44 9.14L43.53 9.19ZM35.05 11.4L35 11.2C34.97 11.2 34.88 11.02 34.73 10.65C34.88 11.12 34.97 11.35 35 11.35L35.05 11.4ZM35.4 11.15C35.4 11.18 35.34 11.15 35.31 11.15C35.31 11.15 35.34 11.22 35.31 11.25L35.4 11.15ZM38.71 20.12L38.84 19.71C38.75 19.65 38.71 19.53 38.71 19.46C38.71 19.43 38.65 19.41 38.62 19.41C38.62 19.34 38.59 19.24 38.53 19.11C38.5 19.01 38.47 18.91 38.44 18.81C38.44 18.84 38.38 18.82 38.35 18.86C38.44 19.02 38.51 19.26 38.57 19.56C38.63 19.83 38.68 20.02 38.71 20.12ZM38.17 19.61C38.14 19.55 38.13 19.46 38.13 19.36L38.08 19.26C38.08 19.29 38.04 19.39 38.04 19.46C38.07 19.53 38.11 19.58 38.17 19.61ZM36.34 29.58L36.3 29.74C36.3 29.74 36.34 29.65 36.34 29.58ZM35.85 30.14C35.82 30.14 35.76 30.14 35.76 30.14C35.76 30.14 35.82 30.14 35.85 30.14ZM65.23 10.8L65.23 10.85L65.14 11.65L63.71 23.39L63.71 23.54C63.65 23.61 63.62 23.64 63.62 23.64L63.62 23.74L63.62 23.89C63.62 23.89 63.6 23.91 63.57 23.94C63.57 23.94 63.56 23.96 63.53 23.99C63.53 24.03 63.5 24.09 63.44 24.09L63.31 24.09L63.17 24.04L63.17 23.84L63.17 23.79C63.14 23.83 63.1 23.84 63.04 23.94L62.95 23.94C62.95 23.98 62.92 23.99 62.86 23.99L62.81 23.99C62.81 23.99 62.8 23.99 62.77 23.99C62.74 23.96 62.71 23.94 62.68 23.94L62.68 23.84L62.55 23.89C62.49 23.89 62.46 23.89 62.46 23.89C62.46 23.83 62.43 23.79 62.37 23.79C62.34 23.83 62.32 23.88 62.32 23.94C62.29 24.01 62.25 24.04 62.19 24.04C62.16 24.01 62.12 23.99 62.06 23.99C62.03 23.96 62.01 23.93 62.01 23.89C62.04 23.86 62.04 23.78 62.01 23.74C61.98 23.71 61.95 23.68 61.92 23.64C61.95 23.68 62.01 23.68 62.01 23.74L61.88 23.89C61.85 23.89 61.83 23.93 61.83 23.99L61.79 24.09C61.79 24.09 61.67 24.08 61.52 24.04L61.48 24.04C61.48 24.04 61.48 24.06 61.48 24.09C61.45 24.09 61.43 24.09 61.43 24.09C61.43 24.13 61.43 24.2 61.43 24.2L60.49 24.35C60.49 24.41 60.51 24.45 60.54 24.45C60.6 24.48 60.63 24.48 60.63 24.45L61.83 24.3C61.95 24.3 62.04 24.33 62.1 24.4C62.13 24.43 62.16 24.43 62.19 24.4C62.25 24.36 62.32 24.38 62.32 24.45L62.28 24.65C62.28 24.68 62.26 24.72 62.23 24.75L61.52 24.95C61.46 24.95 58.63 25.17 53.04 25.61C53.01 25.64 52.93 25.69 52.9 25.66C52.87 25.66 52.84 25.66 52.81 25.66L52.73 25.66C52.7 25.66 52.67 25.64 52.64 25.61C52.64 25.61 52.62 25.56 52.59 25.45C52.59 25.39 52.59 25.34 52.59 25.3C52.65 25.3 52.73 25.27 52.81 25.2C52.81 25.2 52.84 25.2 52.9 25.2C52.81 25.07 52.75 25.05 52.64 25.15L52.55 25.05C52.52 24.98 52.52 24.95 52.55 24.95L52.5 24.75C52.53 24.72 52.55 24.7 52.55 24.7C52.55 24.7 52.61 24.7 52.64 24.7C52.61 24.63 52.56 24.6 52.5 24.6C52.44 24.5 52.44 24.46 52.5 24.5C52.5 24.46 52.53 24.4 52.59 24.3C52.62 24.26 52.7 24.23 52.73 24.2L52.73 23.99C52.7 23.96 52.71 23.93 52.77 23.89C52.68 23.89 52.67 23.86 52.64 23.89C52.61 23.89 52.58 23.89 52.55 23.89C52.52 23.86 52.49 23.84 52.46 23.84C52.46 23.84 52.46 23.83 52.46 23.79L52.37 23.54L52.41 23.39C52.38 23.42 52.31 23.42 52.28 23.39C52.25 23.39 52.22 23.37 52.19 23.34C52.13 23.31 52.1 23.29 52.1 23.29C52.1 23.36 52.07 23.44 52.01 23.54C52.01 23.57 52.01 23.61 52.01 23.64C52.01 23.64 52 23.66 51.97 23.69C51.94 23.73 51.91 23.73 51.88 23.69L51.65 23.54C51.68 23.47 51.67 23.32 51.7 23.19C51.73 23.05 51.73 22.95 51.7 22.89C51.76 22.82 51.77 22.77 51.74 22.74C51.71 22.8 51.65 22.92 51.65 22.99C51.62 23.09 51.59 23.15 51.56 23.19C51.56 23.26 51.53 23.32 51.48 23.39C51.42 23.42 51.36 23.52 51.3 23.69C51.21 23.59 51.12 23.51 51.03 23.44L51.39 21.02C52.1 15.89 52.5 13.22 52.59 13.01C52.65 12.81 52.68 12.7 52.68 12.66C52.68 12.66 52.7 12.65 52.73 12.61L52.68 12.46C52.68 12.36 52.7 12.29 52.73 12.26L52.73 12.21C52.78 12.14 52.81 12.11 52.81 12.11C52.84 12.14 52.89 12.16 52.95 12.16C52.98 12.16 53.01 12.18 53.04 12.21L53.13 12.21C53.13 12.31 53.16 12.38 53.22 12.41C53.22 12.41 53.17 12.48 53.17 12.51L53.31 12.26C53.37 12.26 53.41 12.24 53.44 12.21L53.62 12.26L53.62 12.41C53.68 12.38 53.72 12.34 53.75 12.31C53.78 12.28 53.8 12.24 53.8 12.21C53.83 12.14 53.84 12.16 53.84 12.26C53.84 12.26 53.87 12.28 53.93 12.31C53.96 12.34 53.99 12.38 54.02 12.41L54.06 12.11C54.06 12.07 54.11 12.07 54.2 12.11C54.2 12.14 54.21 12.16 54.24 12.16C54.27 12.12 54.29 12.11 54.29 12.11L54.29 12.01C54.29 11.97 54.3 11.94 54.33 11.91C54.36 11.87 54.39 11.87 54.42 11.91L54.51 11.96C54.54 11.96 54.62 11.89 54.73 11.76C54.67 11.82 54.57 11.86 54.51 11.86C54.42 11.82 54.32 11.82 54.2 11.86C54.17 11.89 54.14 11.89 54.11 11.86C54.08 11.86 54.02 11.84 54.02 11.81L53.98 11.5C53.98 11.5 53.99 11.49 54.02 11.45L54.2 11.45C54.32 11.45 54.42 11.44 54.51 11.4L54.64 11.35L54.69 11.35C54.69 11.29 54.7 11.29 54.64 11.35C54.53 11.35 54.39 11.35 54.33 11.35L54.24 11.4L54.2 11.45L54.06 11.35L53.93 11.4C53.9 11.44 53.87 11.44 53.84 11.4L53.62 11.2C53.65 11.13 53.63 11.1 53.66 11.1C53.72 11.07 53.77 11.03 53.8 11L53.84 10.95L54.29 10.9C54.29 10.9 54.32 10.88 54.38 10.85C54.44 10.85 54.5 10.85 54.56 10.85C54.5 10.82 54.39 10.82 54.24 10.85C54.06 10.85 53.96 10.88 53.84 10.95L53.66 10.9L53.53 10.85C53.53 10.75 53.54 10.7 53.57 10.7L53.62 10.6C53.62 10.56 53.63 10.53 53.66 10.5C53.69 10.46 53.71 10.45 53.71 10.45C53.77 10.41 53.81 10.4 53.84 10.4C53.9 10.43 53.95 10.45 53.98 10.45C54.03 10.45 54.08 10.4 54.11 10.29C54.05 10.26 53.99 10.26 53.93 10.29C53.87 10.36 53.83 10.38 53.8 10.35C53.77 10.31 53.74 10.28 53.71 10.24C53.71 10.21 53.69 10.18 53.66 10.14C53.66 10.08 53.66 10.03 53.66 9.99L53.84 9.89C53.87 9.86 55.42 9.71 58.48 9.44C61.52 9.17 63.05 9.07 63.08 9.14C63.14 9.1 63.22 9.09 63.31 9.09C63.43 9.12 63.51 9.12 63.57 9.09C63.6 9.12 63.62 9.17 63.62 9.24C63.62 9.27 63.62 9.3 63.62 9.34C63.62 9.37 63.48 9.42 63.22 9.49C62.95 9.56 62.84 9.62 62.9 9.69C62.99 9.69 63.13 9.69 63.31 9.69C63.48 9.69 63.6 9.69 63.66 9.69C63.69 9.76 63.56 9.82 63.26 9.89C62.96 9.93 62.79 9.94 62.73 9.94L62.99 10.04C63.02 10.04 63.05 10.04 63.08 10.04C63.17 10.04 63.32 10.01 63.53 9.94C63.62 9.94 63.66 9.98 63.66 10.04C63.66 10.14 63.69 10.23 63.75 10.29C63.81 10.33 63.81 10.36 63.75 10.4C63.72 10.4 63.71 10.4 63.71 10.4L63.62 10.45C63.62 10.58 63.62 10.68 63.62 10.75L63.62 10.7L63.71 10.6L63.75 10.6C63.81 10.6 63.89 10.63 63.98 10.7L64.02 10.75C64.02 10.82 64.01 10.87 63.98 10.9C63.95 10.97 63.93 11.03 63.93 11.1L63.93 11.2C63.96 11.2 63.99 11.2 64.02 11.2C64.05 11.2 64.07 11.2 64.07 11.2C64.12 11.27 64.15 11.37 64.15 11.5C64.15 11.67 64.12 11.79 64.07 11.86C64.12 11.86 64.15 11.84 64.15 11.81C64.18 11.64 64.21 11.47 64.24 11.3C64.27 11.17 64.29 11.02 64.29 10.85C64.29 10.75 64.3 10.7 64.33 10.7C64.39 10.7 64.42 10.66 64.42 10.6C64.42 10.56 64.45 10.55 64.51 10.55C64.6 10.58 64.66 10.63 64.69 10.7L64.73 10.75L64.65 11.2L64.69 11.3C64.72 11.3 64.73 11.29 64.73 11.25C64.73 11.12 64.75 11 64.78 10.9C64.78 10.87 64.79 10.85 64.82 10.85C64.82 10.85 64.84 10.85 64.87 10.85C64.87 10.85 64.93 10.76 65.05 10.6C65.08 10.66 65.14 10.73 65.23 10.8ZM62.15 10.45L62.1 10.35L62.1 10.45L62.15 10.45ZM63.04 10.55L63.04 10.6C63.04 10.63 63.04 10.66 63.04 10.7C63.04 10.73 63.02 10.75 62.99 10.75L62.95 10.8C63.04 10.83 63.08 10.87 63.08 10.9L63.17 10.9L63.22 10.6C63.16 10.6 63.1 10.58 63.04 10.55ZM63.57 11.2L63.48 11.2L63.48 11.3C63.54 11.3 63.57 11.27 63.57 11.2ZM63.13 11.35L63.04 11.35L63.04 11.45L63.13 11.45L63.13 11.35ZM61.48 13.01L56.92 13.42L56.25 13.47L55.09 21.63C57.77 21.43 59.54 21.29 60.4 21.22L61.48 13.01ZM54.29 13.06C54.29 13.17 54.29 13.23 54.29 13.27C54.32 13.27 54.33 13.25 54.33 13.22L54.38 13.06L54.29 13.06ZM52.23 22.43L52.32 22.38L52.23 22.43ZM52.46 22.94L52.41 22.89C52.38 22.89 52.32 22.92 52.23 22.99L52.14 22.94C52.11 22.97 52.1 23.02 52.1 23.09L52.23 22.99C52.29 22.95 52.37 22.94 52.46 22.94ZM61.52 23.54C61.49 23.54 61.51 23.54 61.48 23.54L61.52 23.54ZM61.16 24.2C61.13 24.2 61.12 24.2 61.12 24.2C61.12 24.2 61.13 24.2 61.16 24.2ZM84.42 10.8L84.42 10.85L84.33 11.65L82.91 23.39L82.91 23.54C82.85 23.61 82.82 23.64 82.82 23.64L82.82 23.74L82.82 23.89C82.82 23.89 82.8 23.91 82.77 23.94C82.77 23.94 82.76 23.96 82.73 23.99C82.73 24.03 82.7 24.09 82.64 24.09L82.5 24.09L82.37 24.04L82.37 23.84L82.37 23.79C82.34 23.83 82.3 23.84 82.24 23.94L82.15 23.94C82.15 23.98 82.12 23.99 82.06 23.99L82.01 23.99C82.01 23.99 82 23.99 81.97 23.99C81.94 23.96 81.91 23.94 81.88 23.94L81.88 23.84L81.74 23.89C81.69 23.89 81.66 23.89 81.66 23.89C81.66 23.83 81.63 23.79 81.57 23.79C81.54 23.83 81.52 23.88 81.52 23.94C81.49 24.01 81.45 24.04 81.39 24.04C81.36 24.01 81.31 23.99 81.25 23.99C81.22 23.96 81.21 23.93 81.21 23.89C81.24 23.86 81.24 23.78 81.21 23.74C81.18 23.71 81.15 23.68 81.12 23.64C81.15 23.68 81.21 23.68 81.21 23.74L81.07 23.89C81.05 23.89 81.03 23.93 81.03 23.99L80.99 24.09C80.99 24.09 80.87 24.08 80.72 24.04L80.67 24.04C80.67 24.04 80.67 24.06 80.67 24.09C80.64 24.09 80.63 24.09 80.63 24.09C80.63 24.13 80.63 24.2 80.63 24.2L79.69 24.35C79.69 24.41 79.71 24.45 79.74 24.45C79.8 24.48 79.82 24.48 79.82 24.45L81.03 24.3C81.15 24.3 81.24 24.33 81.3 24.4C81.33 24.43 81.36 24.43 81.39 24.4C81.45 24.36 81.52 24.38 81.52 24.45L81.48 24.65C81.48 24.68 81.46 24.72 81.43 24.75L80.72 24.95C80.66 24.95 77.83 25.17 72.24 25.61L72.19 25.66C72.16 25.69 72.13 25.69 72.1 25.66C72.07 25.66 72.04 25.66 72.01 25.66L71.92 25.66C71.89 25.66 71.86 25.64 71.83 25.61C71.83 25.61 71.82 25.56 71.79 25.45C71.79 25.39 71.79 25.34 71.79 25.3C71.85 25.3 71.92 25.27 72.01 25.2C72.01 25.2 72.04 25.2 72.1 25.2C72.01 25.07 71.95 25.05 71.83 25.15L71.74 25.05C71.71 24.98 71.71 24.95 71.74 24.95L71.7 24.75C71.73 24.72 71.74 24.7 71.74 24.7C71.77 24.7 71.79 24.7 71.79 24.7C71.76 24.63 71.76 24.6 71.7 24.6C71.64 24.5 71.64 24.46 71.7 24.5C71.7 24.46 71.73 24.4 71.79 24.3C71.82 24.26 71.89 24.23 71.92 24.2L71.92 23.99C71.89 23.96 71.91 23.93 71.97 23.89C72 23.89 72.01 23.89 72.01 23.89C71.92 23.89 71.86 23.86 71.83 23.89C71.8 23.89 71.77 23.89 71.74 23.89C71.71 23.86 71.68 23.84 71.65 23.84C71.65 23.84 71.65 23.83 71.65 23.79L71.57 23.54L71.61 23.39C71.58 23.42 71.51 23.42 71.48 23.39C71.45 23.39 71.42 23.37 71.39 23.34C71.33 23.31 71.3 23.29 71.3 23.29C71.3 23.36 71.27 23.44 71.21 23.54C71.21 23.57 71.21 23.61 71.21 23.64C71.21 23.64 71.19 23.66 71.16 23.69C71.13 23.73 71.1 23.73 71.07 23.69L70.85 23.54L70.81 23.49C70.84 23.42 70.87 23.32 70.9 23.19C70.93 23.05 70.93 22.95 70.9 22.89C70.96 22.82 70.97 22.77 70.94 22.74C70.91 22.8 70.85 22.92 70.85 22.99C70.82 23.09 70.79 23.15 70.76 23.19C70.76 23.26 70.73 23.32 70.67 23.39C70.61 23.42 70.55 23.52 70.49 23.69C70.4 23.59 70.32 23.51 70.23 23.44L70.58 21.02C71.3 15.89 71.7 13.22 71.79 13.01C71.85 12.81 71.88 12.7 71.88 12.66C71.88 12.66 71.89 12.65 71.92 12.61L71.88 12.46C71.88 12.36 71.89 12.29 71.92 12.26L71.92 12.21C71.98 12.14 72.01 12.11 72.01 12.11C72.04 12.14 72.09 12.16 72.15 12.16C72.18 12.16 72.21 12.18 72.24 12.21L72.32 12.21C72.32 12.31 72.35 12.38 72.41 12.41C72.38 12.41 72.37 12.43 72.37 12.46C72.37 12.46 72.37 12.48 72.37 12.51L72.41 12.51L72.5 12.26C72.56 12.26 72.61 12.24 72.64 12.21L72.68 12.21L72.82 12.26C72.82 12.26 72.83 12.26 72.86 12.26L72.82 12.41C72.88 12.38 72.92 12.34 72.95 12.31C72.98 12.28 72.99 12.24 72.99 12.21C73.02 12.14 73.04 12.16 73.04 12.26C73.04 12.26 73.07 12.28 73.13 12.31C73.16 12.34 73.19 12.38 73.22 12.41L73.26 12.11C73.26 12.07 73.31 12.07 73.4 12.11C73.4 12.14 73.41 12.16 73.44 12.16C73.47 12.12 73.49 12.11 73.49 12.11L73.49 12.01C73.49 11.97 73.5 11.94 73.53 11.91C73.56 11.87 73.59 11.87 73.62 11.91L73.71 11.96C73.74 11.96 73.81 11.89 73.93 11.76C73.87 11.82 73.77 11.86 73.71 11.86C73.62 11.82 73.51 11.82 73.4 11.86C73.37 11.89 73.34 11.89 73.31 11.86C73.28 11.86 73.26 11.86 73.26 11.86C73.23 11.86 73.22 11.84 73.22 11.81L73.17 11.5C73.17 11.5 73.19 11.49 73.22 11.45L73.4 11.45C73.51 11.45 73.62 11.44 73.71 11.4L73.84 11.35L73.89 11.35C73.89 11.29 73.9 11.29 73.84 11.35C73.72 11.35 73.59 11.35 73.53 11.35L73.44 11.4L73.4 11.45L73.26 11.35L73.13 11.4C73.1 11.44 73.07 11.44 73.04 11.4L72.82 11.2C72.85 11.13 72.83 11.1 72.86 11.1C72.92 11.07 72.96 11.03 72.99 11L73.04 10.95L73.49 10.9C73.49 10.9 73.51 10.88 73.57 10.85C73.63 10.85 73.69 10.85 73.75 10.85C73.69 10.82 73.59 10.82 73.44 10.85C73.26 10.85 73.16 10.88 73.04 10.95L72.86 10.9L72.73 10.85C72.73 10.75 72.74 10.7 72.77 10.7L72.82 10.6C72.82 10.56 72.83 10.53 72.86 10.5C72.89 10.46 72.9 10.45 72.9 10.45C72.96 10.41 73.01 10.4 73.04 10.4C73.1 10.43 73.14 10.45 73.17 10.45C73.23 10.45 73.28 10.4 73.31 10.29C73.25 10.26 73.19 10.26 73.13 10.29C73.07 10.36 73.02 10.38 72.99 10.35C72.96 10.31 72.93 10.28 72.9 10.24C72.9 10.21 72.89 10.18 72.86 10.14C72.86 10.08 72.86 10.03 72.86 9.99L73.04 9.89C73.07 9.86 74.62 9.71 77.68 9.44C80.72 9.17 82.25 9.07 82.28 9.14C82.34 9.1 82.41 9.09 82.5 9.09C82.62 9.12 82.71 9.12 82.77 9.09C82.8 9.12 82.82 9.17 82.82 9.24C82.82 9.27 82.82 9.3 82.82 9.34C82.82 9.37 82.68 9.42 82.41 9.49C82.15 9.56 82.04 9.62 82.1 9.69C82.19 9.69 82.33 9.69 82.5 9.69C82.68 9.69 82.8 9.69 82.86 9.69C82.89 9.76 82.76 9.82 82.46 9.89C82.16 9.93 81.98 9.94 81.92 9.94L82.19 10.04C82.22 10.04 82.25 10.04 82.28 10.04C82.37 10.04 82.52 10.01 82.73 9.94C82.82 9.94 82.86 9.98 82.86 10.04C82.86 10.14 82.89 10.23 82.95 10.29C83.01 10.33 83.01 10.36 82.95 10.4C82.92 10.4 82.91 10.4 82.91 10.4L82.82 10.45C82.82 10.58 82.82 10.68 82.82 10.75L82.82 10.7L82.91 10.6L82.95 10.6C83.01 10.6 83.08 10.63 83.17 10.7L83.22 10.75C83.22 10.82 83.2 10.87 83.17 10.9C83.14 10.97 83.13 11.03 83.13 11.1L83.13 11.2C83.16 11.2 83.19 11.2 83.22 11.2C83.25 11.2 83.26 11.2 83.26 11.2C83.32 11.27 83.35 11.37 83.35 11.5C83.35 11.67 83.32 11.79 83.26 11.86C83.32 11.86 83.35 11.84 83.35 11.81C83.38 11.64 83.41 11.47 83.44 11.3C83.47 11.17 83.49 11.02 83.49 10.85C83.49 10.75 83.5 10.7 83.53 10.7C83.59 10.7 83.62 10.66 83.62 10.6C83.62 10.56 83.65 10.55 83.71 10.55C83.8 10.58 83.86 10.63 83.89 10.7L83.93 10.75L83.84 11.2L83.89 11.3C83.92 11.3 83.93 11.29 83.93 11.25C83.93 11.12 83.95 11 83.98 10.9C83.98 10.87 83.99 10.85 84.02 10.85C84.02 10.85 84.04 10.85 84.07 10.85C84.07 10.85 84.13 10.76 84.24 10.6C84.27 10.66 84.33 10.73 84.42 10.8ZM81.34 10.45L81.3 10.35L81.3 10.45L81.34 10.45ZM82.24 10.55L82.24 10.6C82.24 10.63 82.24 10.66 82.24 10.7C82.24 10.73 82.22 10.75 82.19 10.75L82.15 10.8C82.24 10.83 82.28 10.87 82.28 10.9L82.37 10.9L82.41 10.6C82.35 10.6 82.3 10.58 82.24 10.55ZM82.77 11.2L82.68 11.2L82.68 11.3C82.74 11.3 82.77 11.27 82.77 11.2ZM82.33 11.35L82.24 11.35L82.24 11.45L82.33 11.45L82.33 11.35ZM80.67 13.01L76.12 13.42L75.45 13.47L74.29 21.63C76.97 21.43 78.74 21.29 79.6 21.22L80.67 13.01ZM73.49 13.06C73.49 13.17 73.49 13.23 73.49 13.27C73.51 13.27 73.53 13.25 73.53 13.22L73.57 13.06L73.49 13.06ZM71.43 22.43L71.52 22.38L71.43 22.43ZM71.65 22.94L71.61 22.89C71.58 22.89 71.52 22.92 71.43 22.99L71.34 22.94C71.31 22.97 71.3 23.02 71.3 23.09L71.43 22.99C71.49 22.95 71.57 22.94 71.65 22.94ZM80.72 23.54C80.69 23.54 80.7 23.54 80.67 23.54L80.72 23.54ZM80.36 24.2C80.33 24.2 80.32 24.2 80.32 24.2C80.32 24.2 80.33 24.2 80.36 24.2Z" fill="#158BFF" fill-opacity="1.000000" fill-rule="nonzero"/>
	<path id="namepathdata" d="M11.16 0.67L11.2 0.83L8.03 24.55C8.03 24.58 8.03 24.62 8.03 24.65C8.01 24.68 7.98 24.7 7.95 24.7C7.89 24.73 7.81 24.77 7.72 24.8C7.69 24.77 7.68 24.75 7.68 24.75C7.65 24.78 7.63 24.8 7.63 24.8C7.6 24.8 7.59 24.82 7.59 24.85C7.59 24.85 7.63 24.92 7.63 24.95C7.63 24.95 7.63 24.97 7.63 25C7.57 24.97 7.5 25 7.41 25.1L7.28 25C7.22 24.87 7.22 24.72 7.28 24.55C7.25 24.51 7.22 24.51 7.19 24.55C7.19 24.55 7.19 24.57 7.19 24.6C7.1 24.83 7.07 25 7.1 25.1C7.16 25.14 7.16 25.17 7.1 25.2C7.04 25.2 6.95 25.25 6.83 25.35C6.71 25.35 6.68 25.32 6.74 25.25L6.74 24.95C6.74 24.82 6.74 24.72 6.74 24.65C6.74 24.58 6.76 24.5 6.78 24.4C6.73 24.4 6.7 24.36 6.7 24.3L6.7 23.54C6.67 23.47 6.67 23.47 6.61 23.54C6.58 23.74 6.55 24.01 6.52 24.35C6.49 24.65 6.47 24.92 6.47 25.15C6.47 25.19 6.41 25.2 6.29 25.2C6.26 25.2 6.23 25.2 6.2 25.2C6.17 25.2 6.14 25.2 6.12 25.2C6.17 25.14 6.13 24.98 6.07 24.85C6.07 24.51 6.1 24.2 6.16 23.89C6.13 23.93 6.07 23.99 6.07 24.09C6.1 24.16 6.12 24.23 6.12 24.3C6.09 24.36 6.06 24.43 6.03 24.5C6.03 24.53 6.01 24.58 5.98 24.65L5.67 24.7C5.67 24.67 5.64 24.6 5.67 24.6C5.67 24.53 5.67 24.45 5.67 24.35C5.67 24.25 5.67 24.18 5.67 24.15C5.67 24.11 5.67 24.08 5.67 24.04L5.53 23.99C5.51 23.89 5.49 23.74 5.49 23.54C5.49 23.37 5.51 23.24 5.53 23.14C5.53 23.14 5.51 23.19 5.45 23.29C5.39 23.79 5.36 24.16 5.36 24.4C5.36 24.5 5.33 24.6 5.27 24.7C5.24 24.7 5.22 24.72 5.22 24.75C5.19 24.78 5.16 24.83 5.13 24.8C5.01 24.73 4.92 24.7 4.87 24.7C4.92 24.36 4.94 24.09 4.91 23.99C4.97 23.93 4.98 23.89 4.95 23.89C4.92 23.99 4.87 24.09 4.87 24.2C4.84 24.26 4.81 24.31 4.78 24.35C4.78 24.41 4.76 24.48 4.73 24.55C4.67 24.58 4.61 24.68 4.55 24.85C4.49 24.78 4.4 24.72 4.28 24.65C4.28 24.62 4.28 24.55 4.28 24.55L5 19.01C5.21 17.53 5.65 14.27 6.34 9.24C6.99 4.17 7.35 1.55 7.41 1.38C7.47 1.21 7.5 1.09 7.5 1.03L7.5 0.88C7.47 0.78 7.47 0.69 7.5 0.62C7.53 0.56 7.56 0.52 7.59 0.52C7.62 0.56 7.66 0.57 7.72 0.57C7.75 0.61 7.83 0.61 7.86 0.57C7.86 0.64 7.9 0.74 7.99 0.78C7.99 0.81 7.95 0.84 7.95 0.88L8.08 0.62C8.14 0.62 8.18 0.61 8.21 0.57L8.26 0.57L8.39 0.62L8.39 0.73C8.42 0.73 8.45 0.69 8.48 0.62C8.51 0.59 8.54 0.56 8.57 0.52C8.6 0.49 8.62 0.51 8.62 0.57C8.67 0.61 8.76 0.69 8.79 0.73L8.84 0.47C8.84 0.41 8.87 0.41 8.93 0.47C8.96 0.47 8.99 0.47 9.02 0.47C9.05 0.44 9.08 0.42 9.11 0.42C9.14 0.46 9.15 0.52 9.15 0.62C9.15 0.73 9.14 0.93 9.11 1.23C9.08 1.56 9.08 1.75 9.11 1.78L9.15 1.83L9.15 1.63C9.15 1.46 9.17 1.25 9.2 0.98C9.23 0.74 9.24 0.54 9.24 0.37C9.24 0.34 9.26 0.32 9.29 0.32C9.29 0.29 9.3 0.26 9.33 0.22C9.33 0.22 9.34 0.22 9.37 0.22L9.64 0.22L9.69 0.32C9.69 0.42 9.66 0.67 9.6 1.08C9.51 1.45 9.48 1.67 9.51 1.73C9.51 1.77 9.54 1.78 9.6 1.78L9.46 1.88C9.55 1.88 9.6 1.87 9.6 1.83C9.6 1.8 9.6 1.82 9.6 1.78C9.57 1.72 9.57 1.6 9.6 1.53L9.6 1.43L9.73 0.47C9.7 0.37 9.7 0.32 9.73 0.32C9.7 0.29 9.69 0.24 9.69 0.17L9.73 0.17C9.76 0.1 9.82 0.05 9.91 0.02C9.97 -0.01 10 -0.01 10 0.02C10 0.05 10.03 0.07 10.09 0.07C10.15 0.1 10.18 0.15 10.18 0.22C10.21 0.22 10.22 0.22 10.22 0.22C10.1 0.96 10.04 1.41 10.04 1.58C10.04 1.65 10.04 1.7 10.04 1.73L10.04 1.83C10.04 1.73 10.04 1.62 10.04 1.58C10.07 1.41 10.12 1.23 10.18 0.93C10.21 0.62 10.19 0.39 10.22 0.22C10.25 0.19 10.28 0.1 10.31 0.07C10.31 0.07 10.33 0.05 10.36 0.02L10.49 0.07L10.58 0.17C10.61 0.2 10.62 0.22 10.62 0.22C10.62 0.26 10.64 0.27 10.67 0.27L10.58 0.47C10.58 0.57 10.59 0.62 10.62 0.62C10.71 0.59 10.76 0.56 10.76 0.52C10.76 0.42 10.76 0.37 10.76 0.37C10.79 0.34 10.82 0.32 10.85 0.32L11.07 0.32C11.07 0.39 11.09 0.44 11.12 0.47C11.15 0.44 11.2 0.51 11.2 0.57C11.2 0.61 11.19 0.64 11.16 0.67ZM30.63 22.58L30.63 22.84C30.63 22.87 30.63 22.9 30.63 22.94C30.6 22.97 30.57 22.99 30.54 22.99L30.05 23.04C30.05 23.07 25.88 23.57 17.54 24.55L17.46 24.55C17.46 24.55 17.43 24.55 17.37 24.55C17.34 24.55 17.31 24.57 17.28 24.6C17.25 24.6 17.23 24.58 17.23 24.55C17.23 24.55 17.22 24.53 17.19 24.5C17.19 24.46 17.17 24.45 17.14 24.45C17.17 24.38 17.17 24.33 17.14 24.3C17.2 24.26 17.28 24.23 17.28 24.2L17.41 24.15C17.35 24.01 17.28 24.04 17.19 24.15C17.16 24.15 17.13 24.13 17.1 24.09L17.05 24.04C17.05 24.04 17.04 23.98 17.01 23.94C17.01 23.91 17.02 23.88 17.05 23.84L17.1 23.79C17.1 23.79 17.11 23.79 17.14 23.79C17.11 23.73 17.1 23.64 17.1 23.64L17.01 23.64C16.95 23.57 16.93 23.54 16.96 23.54L17.05 23.39C17.08 23.39 17.11 23.32 17.14 23.29L17.14 23.14C17.14 23.04 17.17 22.99 17.23 22.99C17.35 22.92 17.43 22.85 17.46 22.79L17.41 22.79C17.41 22.85 17.38 22.89 17.32 22.89L17.19 22.94C17.07 23.14 16.99 23.29 16.96 23.39C16.93 23.42 16.9 23.44 16.87 23.44C16.85 23.41 16.82 23.39 16.79 23.39C16.76 23.32 16.7 23.29 16.61 23.29C16.58 23.22 16.58 23.19 16.61 23.19C16.7 23.15 16.74 23.09 16.74 22.99L16.83 22.84L16.83 22.74L16.79 22.74L16.74 22.79C16.68 22.75 16.64 22.72 16.61 22.68C16.55 22.65 16.52 22.63 16.52 22.63C16.52 22.6 16.5 22.57 16.47 22.53C16.47 22.5 16.53 22.42 16.56 22.38C16.59 22.35 16.61 22.3 16.61 22.23L16.65 22.23L16.7 22.23L16.7 22.18L16.61 22.23L16.52 22.23C16.52 22.23 16.49 22.18 16.43 22.08L16.29 22.23C16.29 22.33 16.25 22.38 16.16 22.38C16.16 22.45 16.12 22.5 16.03 22.53C16 22.53 15.98 22.52 15.98 22.48C15.98 22.48 15.98 22.47 15.98 22.43C15.95 22.37 15.94 22.3 15.94 22.23L15.94 22.13C15.94 22.13 15.97 22.1 16.03 22.03C16.09 22 16.13 21.93 16.16 21.83L16.21 21.78C16.18 21.74 16.16 21.74 16.16 21.78C16.16 21.78 16.16 21.79 16.16 21.83C16.13 21.83 16.09 21.86 16.03 21.93C16 21.96 15.97 21.96 15.94 21.93C15.94 21.96 15.92 22 15.89 22.03C15.83 22.06 15.8 22.08 15.8 22.08L15.76 22.08C15.67 22.08 15.59 22.11 15.54 22.18C15.54 21.98 15.51 21.86 15.45 21.83C15.45 21.79 15.45 21.78 15.45 21.78C16.01 21.17 17.1 20.02 18.71 18.3C20.31 16.59 21.99 14.83 23.75 13.01L17.77 13.57C17.77 13.57 17.74 13.57 17.68 13.57C17.65 13.6 17.6 13.6 17.54 13.57C17.51 13.57 17.46 13.57 17.46 13.57C17.46 13.53 17.44 13.5 17.41 13.47C17.41 13.43 17.41 13.33 17.41 13.27C17.5 13.23 17.54 13.2 17.54 13.17L17.63 13.12C17.63 13.15 17.65 13.17 17.68 13.17C17.62 13 17.56 12.98 17.5 13.12L17.41 13.12C17.35 13.12 17.34 13.08 17.37 13.01C17.4 12.98 17.41 12.95 17.41 12.91C17.38 12.85 17.38 12.8 17.41 12.76C17.41 12.73 17.44 12.71 17.5 12.71C17.41 12.61 17.37 12.56 17.37 12.56C17.31 12.49 17.31 12.46 17.37 12.46L17.41 12.31C17.44 12.31 17.47 12.29 17.5 12.26L17.54 12.06C17.54 11.96 17.59 11.89 17.68 11.86L17.77 11.86C17.71 11.86 17.62 11.87 17.5 11.91C17.47 11.94 17.44 11.94 17.41 11.91C17.41 11.87 17.4 11.86 17.37 11.86L17.28 11.6C17.31 11.57 17.32 11.55 17.32 11.55C17.38 11.52 17.46 11.5 17.54 11.5L17.5 11.45L17.32 11.45C17.29 11.49 17.22 11.5 17.19 11.5C17.16 11.47 17.13 11.44 17.1 11.4C17.1 11.4 17.08 11.39 17.05 11.35C16.99 11.35 16.98 11.35 17.01 11.35C17.04 11.29 17.1 11.2 17.19 11.1L17.54 11C17.57 11.03 17.65 10.98 17.77 10.85C17.74 10.85 17.69 10.87 17.63 10.9C17.57 10.93 17.54 10.95 17.54 10.95C17.48 10.95 17.37 11 17.19 11.1L17.1 11.1C17.1 11.07 17.07 11.02 17.01 10.95C16.98 10.92 16.98 10.88 17.01 10.85C17.01 10.85 17.01 10.83 17.01 10.8L17.01 10.7C17.01 10.63 17.05 10.6 17.14 10.6C17.17 10.6 17.2 10.6 17.23 10.6C17.26 10.56 17.29 10.55 17.32 10.55C17.38 10.55 17.41 10.51 17.41 10.45C17.35 10.45 17.32 10.45 17.32 10.45C17.23 10.48 17.19 10.46 17.19 10.4C17.16 10.36 17.14 10.31 17.14 10.24C17.17 10.21 17.17 10.18 17.14 10.14C17.17 10.14 17.2 10.11 17.23 10.04C24.23 9.3 27.74 9 27.77 9.14C27.8 9.1 27.86 9.09 27.95 9.09C28.04 9.09 28.11 9.07 28.17 9.04C28.17 9.1 28.17 9.15 28.17 9.19C28.2 9.25 28.21 9.29 28.21 9.29C28.21 9.29 28.1 9.32 27.86 9.39C27.65 9.49 27.56 9.56 27.59 9.59C27.68 9.62 27.8 9.62 27.95 9.59C28.1 9.56 28.19 9.56 28.21 9.59C28.21 9.66 28.13 9.71 27.95 9.74C27.74 9.81 27.59 9.86 27.5 9.89L27.68 9.94C27.71 9.98 27.74 9.99 27.77 9.99C27.77 9.99 27.77 9.98 27.77 9.94C27.83 9.94 27.9 9.93 27.99 9.89C28.05 9.82 28.1 9.81 28.13 9.84C28.19 9.81 28.21 9.81 28.21 9.84C28.21 9.91 28.21 9.96 28.21 9.99L28.26 10.19L28.26 10.29C28.2 10.36 28.1 10.4 27.95 10.4C27.92 10.4 27.89 10.41 27.86 10.45C27.83 10.48 27.8 10.5 27.77 10.5C27.77 10.56 27.74 10.63 27.68 10.7C27.74 10.73 27.77 10.75 27.77 10.75L28.21 10.65C28.27 10.65 28.3 10.66 28.3 10.7C28.3 10.7 28.32 10.73 28.35 10.8C28.35 10.87 28.35 10.9 28.35 10.9L28.26 10.95L28.26 11.1C28.26 11.1 28.24 11.12 28.21 11.15C28.19 11.18 28.14 11.23 28.08 11.3L28.08 11.45L28.3 11.15C28.3 11.12 28.32 11.08 28.35 11.05L28.35 10.9C28.47 10.87 28.54 10.92 28.57 10.95C28.66 10.95 28.69 10.95 28.66 10.95C28.66 10.98 28.69 11.03 28.75 11.1C28.78 11.13 28.78 11.17 28.75 11.2C28.75 11.23 28.69 11.35 28.48 11.55C28.3 11.76 28.19 11.92 28.13 12.06C28.19 12.02 28.3 11.91 28.48 11.71C28.66 11.47 28.78 11.34 28.84 11.3L28.75 11.2C28.75 11.2 28.85 11.2 28.97 11.2C29 11.23 29.05 11.29 29.11 11.35C29.08 11.35 29.06 11.37 29.06 11.4C29.03 11.4 29.02 11.42 29.02 11.45C29.02 11.45 29.02 11.47 29.02 11.5C28.99 11.5 28.94 11.54 28.88 11.6L28.88 11.81L29.02 11.76C29.02 11.72 29.06 11.69 29.15 11.65C29.27 11.72 29.35 11.76 29.38 11.76C29.38 11.82 29.38 11.86 29.38 11.86C29.38 11.89 29.38 11.92 29.38 11.96C29.41 11.96 29.41 11.97 29.38 12.01C29.38 12.04 29.35 12.06 29.29 12.06L29.24 12.11L21.52 20.52C27.17 19.75 30.02 19.41 30.05 19.51C30.07 19.48 30.15 19.46 30.27 19.46C30.36 19.46 30.43 19.44 30.49 19.41C30.49 19.48 30.49 19.53 30.49 19.56C30.49 19.63 30.51 19.66 30.54 19.66C30.54 19.7 30.42 19.73 30.18 19.76C29.91 19.83 29.79 19.88 29.82 19.91C29.91 19.95 30.03 19.95 30.18 19.91C30.33 19.91 30.43 19.91 30.49 19.91C30.52 19.98 30.43 20.07 30.22 20.17C30.05 20.23 29.9 20.27 29.78 20.27L29.96 20.37C29.99 20.4 30.02 20.42 30.05 20.42C30.05 20.42 30.05 20.4 30.05 20.37C30.1 20.37 30.16 20.35 30.22 20.32C30.31 20.28 30.39 20.27 30.45 20.27C30.51 20.27 30.54 20.3 30.54 20.37L30.58 20.57L30.58 20.67C30.52 20.74 30.46 20.77 30.4 20.77C30.31 20.8 30.24 20.82 30.18 20.82L30 20.87C30.03 20.94 30.02 21.01 29.96 21.07C29.84 21.14 29.64 21.17 29.38 21.17C29.38 21.27 29.39 21.36 29.42 21.32C29.6 21.26 29.79 21.21 30 21.17C30.18 21.11 30.36 21.06 30.54 21.02C30.6 21.02 30.63 21.04 30.63 21.07C30.63 21.07 30.64 21.11 30.67 21.17C30.67 21.27 30.69 21.32 30.71 21.32C30.74 21.32 30.71 21.36 30.63 21.43C30.51 21.46 30.45 21.48 30.45 21.48C30.51 21.48 30.25 21.56 29.69 21.73C29.69 21.76 29.69 21.83 29.69 21.83C29.69 21.83 29.69 21.76 29.69 21.73C29.75 21.73 29.87 21.74 30.05 21.68C30.1 21.68 30.16 21.66 30.22 21.63C30.28 21.59 30.33 21.59 30.36 21.63L30.4 21.63L30.4 22.03C30.31 22.06 30.25 22.1 30.22 22.13C30.16 22.13 30.1 22.15 30.05 22.18C30.02 22.18 29.96 22.18 29.96 22.18L30 22.38L29.2 22.53C29.2 22.6 29.21 22.65 29.24 22.68C29.24 22.72 29.26 22.72 29.29 22.68L30.36 22.48C30.39 22.48 30.4 22.48 30.4 22.48C30.4 22.52 30.43 22.53 30.49 22.53L30.63 22.53C30.69 22.5 30.69 22.52 30.63 22.58ZM27.46 10.75L27.41 10.8L27.41 10.85L27.46 10.75ZM27.55 11.35L27.63 11.35C27.63 11.29 27.63 11.25 27.63 11.25L27.59 11.25L27.55 11.35ZM17.86 11.45C17.86 11.39 17.83 11.35 17.77 11.35C17.71 11.35 17.65 11.4 17.59 11.5L17.72 11.45C17.72 11.45 17.83 11.42 17.86 11.45ZM27.68 11.81C27.71 11.84 27.72 11.87 27.72 11.91C27.72 11.87 27.75 11.82 27.81 11.76C27.84 11.76 27.86 11.76 27.86 11.76L27.86 11.65L27.81 11.76L27.68 11.81ZM17.86 11.76L17.81 11.86L17.86 11.76ZM27.72 12.01L27.72 11.91L27.63 11.91L27.72 12.01ZM27.63 11.91L27.72 12.01C27.72 12.04 27.69 11.97 27.63 11.91ZM16.79 21.63C16.79 21.63 16.8 21.61 16.83 21.58L16.79 21.63ZM48.26 10.4C48.11 10.87 48.02 11.18 47.99 11.25L40.27 30.39L40.22 30.54C40.19 30.54 40.16 30.54 40.14 30.54C40.11 30.58 40.11 30.61 40.14 30.64C40.08 30.64 40.05 30.64 40.05 30.64C40.05 30.71 40.05 30.74 40.05 30.74C40.02 30.74 40 30.81 40 30.84L40 30.94C40.03 30.98 39.99 31 39.87 31C39.84 31 39.79 30.96 39.73 30.89C39.64 30.79 39.6 30.74 39.6 30.74L39.64 30.69L39.64 30.54C39.55 30.54 39.54 30.54 39.51 30.64L39.47 30.64C39.47 30.64 39.44 30.64 39.38 30.64L39.29 30.64C39.26 30.58 39.2 30.54 39.11 30.54L39.11 30.44C39.11 30.41 39.06 30.39 38.97 30.39C39.03 30.36 38.97 30.27 38.89 30.24C38.86 30.24 38.84 30.27 38.84 30.34C38.81 30.37 38.78 30.39 38.75 30.39C38.69 30.39 38.66 30.39 38.66 30.39C38.63 30.32 38.59 30.29 38.53 30.29C38.5 30.26 38.5 30.22 38.53 30.19C38.59 30.12 38.6 30.07 38.57 30.04C38.57 30 38.54 29.97 38.48 29.94C38.51 30 38.5 30.05 38.44 30.09C38.41 30.12 38.35 30.21 38.35 30.24C38.35 30.27 38.32 30.29 38.26 30.29L38.22 30.39C38.19 30.39 38.16 30.34 38.13 30.24C38.1 30.17 38.05 30.14 37.99 30.14C38.02 30.11 38.04 30.05 38.04 29.99L37.99 30.14C37.93 30.17 37.83 30.17 37.77 30.14C37.71 30.14 37.66 30.14 37.63 30.14L37.59 29.99L37.59 29.94C37.59 29.8 37.61 29.69 37.63 29.58C37.63 29.55 37.65 29.52 37.68 29.48C37.68 29.48 37.69 29.48 37.72 29.48L37.68 29.43L37.63 29.58C37.61 29.69 37.59 29.8 37.59 29.94C37.59 29.97 37.59 29.99 37.59 29.99C37.59 29.99 37.53 29.97 37.5 29.94C37.47 29.9 37.44 29.9 37.41 29.94L37.28 29.94C37.25 29.94 37.23 29.9 37.23 29.84L37.14 29.69C37.14 29.65 37.16 29.6 37.19 29.53L37.19 29.33C37.13 29.33 37.05 29.33 37.05 29.33C37.05 29.4 37.05 29.43 37.05 29.43C37.02 29.43 37 29.43 36.97 29.43C36.91 29.4 36.86 29.4 36.83 29.43C36.83 29.37 36.8 29.3 36.74 29.23C36.74 29.17 36.76 29.13 36.79 29.13C36.85 29.13 36.88 29.11 36.88 29.08L40.4 20.37C40.37 20.37 40.33 20.38 40.27 20.42C40.27 20.42 40.27 20.38 40.27 20.32C40.27 20.28 40.24 20.23 40.18 20.17C40.09 20.07 40.03 19.95 40 19.81C39.97 19.88 39.96 19.95 39.96 20.02L40.05 20.12L39.78 20.17L39.69 20.17C39.63 20 39.6 19.85 39.6 19.71C39.57 19.68 39.5 19.63 39.47 19.66L39.38 19.66L39.11 19.06C39.14 19.06 39.15 19.08 39.15 19.11C39.24 19.55 39.3 19.88 39.33 20.12C39.42 20.22 39.45 20.28 39.42 20.32C39.42 20.32 39.42 20.33 39.42 20.37C39.45 20.4 39.44 20.45 39.38 20.52C39.29 20.55 39.23 20.55 39.2 20.52C39.17 20.52 39.12 20.54 39.06 20.57L39.06 20.47C39.06 20.3 39 20.12 38.89 19.91C38.91 19.91 38.94 19.9 38.97 19.86C38.97 19.83 38.96 19.81 38.93 19.81C38.9 19.85 38.86 19.86 38.89 19.86C38.89 19.96 38.9 20.05 38.93 20.12C38.96 20.18 38.96 20.23 38.93 20.27C38.96 20.27 38.97 20.3 38.97 20.37C38.94 20.4 38.93 20.42 38.93 20.42C38.9 20.49 38.89 20.55 38.89 20.62C38.89 20.65 38.89 20.69 38.89 20.72C38.8 20.79 38.69 20.79 38.57 20.72C38.6 20.69 38.3 19.95 37.77 18.61C37.26 17.23 36.88 16.2 36.61 15.53C35.72 13.22 35.25 11.99 35.22 11.86C35.22 11.76 35.22 11.67 35.22 11.6C35.22 11.54 35.22 11.49 35.22 11.45L35.22 11.35C35.22 11.32 35.19 11.3 35.13 11.3C35.13 11.27 35.12 11.23 35.09 11.2C35.09 11.17 35.11 11.13 35.13 11.1L35.09 11.05C35.09 10.98 35.09 10.95 35.09 10.95C35.12 11.02 35.16 11.02 35.22 10.95C35.31 10.92 35.36 10.9 35.36 10.9C35.36 10.9 35.42 10.97 35.54 11C35.48 11.03 35.46 11.07 35.49 11.1L35.58 11.1C35.58 11 35.57 10.92 35.54 10.85L35.58 10.7L35.67 10.7L35.8 10.7L35.89 10.8L35.89 10.6C35.89 10.53 35.89 10.5 35.89 10.5C35.92 10.53 35.94 10.56 35.94 10.6C35.94 10.6 36.01 10.61 36.16 10.65L36.07 10.4C36.04 10.33 36.07 10.31 36.16 10.35C36.16 10.35 36.18 10.33 36.21 10.29C36.24 10.26 36.25 10.24 36.25 10.24C36.31 10.24 36.37 10.29 36.43 10.4L36.47 10.5L36.38 10.19C36.38 10.09 36.4 10.04 36.43 10.04C36.43 10.04 36.43 10.03 36.43 9.99C36.49 9.93 36.58 9.89 36.7 9.89C36.85 10.56 37.01 11.02 37.1 11.15C37.1 11.15 37.13 11.15 37.19 11.15C37.1 11.08 37.05 11.02 37.05 10.95L36.83 10.04C36.8 9.98 36.8 9.94 36.83 9.94C36.77 9.91 36.74 9.88 36.74 9.84C36.74 9.81 36.74 9.79 36.74 9.79L36.83 9.59C36.89 9.56 36.92 9.54 36.92 9.54C36.95 9.57 36.98 9.59 37.01 9.59C37.07 9.59 37.1 9.61 37.1 9.64C37.13 9.71 37.22 9.89 37.28 10.19C37.37 10.53 37.43 10.75 37.46 10.85C37.52 10.92 37.55 10.95 37.55 10.95C37.55 10.95 37.52 10.9 37.46 10.8C37.43 10.66 37.34 10.46 37.28 10.19C37.22 9.93 37.22 9.72 37.19 9.59L37.19 9.39C37.25 9.35 37.31 9.35 37.37 9.39C37.37 9.39 37.43 9.42 37.46 9.49C37.52 9.52 37.55 9.52 37.55 9.49C37.55 9.52 37.55 9.59 37.55 9.69C37.58 9.72 37.62 9.74 37.68 9.74C37.71 9.74 37.71 9.72 37.68 9.69C37.65 9.62 37.65 9.54 37.68 9.54C37.68 9.51 37.68 9.47 37.68 9.44C37.8 9.4 37.86 9.37 37.86 9.34C37.92 9.37 37.95 9.4 37.95 9.44C37.98 9.44 38.04 9.46 38.04 9.49C38.07 9.52 38.07 9.54 38.04 9.54C38.13 9.64 38.17 9.69 38.17 9.69L41.3 18.1L44.87 9.24C44.93 9.17 44.99 9.14 45.05 9.14C45.08 9.14 45.11 9.14 45.14 9.14C45.17 9.17 45.19 9.17 45.22 9.14C45.19 9.24 45.19 9.39 45.14 9.59C45.08 9.82 45.06 9.96 45.09 9.99C45.06 9.96 45.12 9.82 45.27 9.59C45.39 9.35 45.49 9.19 45.58 9.09C45.58 9.12 45.61 9.14 45.58 9.14C45.64 9.24 45.64 9.37 45.58 9.54L45.72 9.54C45.83 9.37 45.89 9.22 45.89 9.09C45.95 9.09 46.03 9.04 46.03 9.04C46.06 9.07 46.09 9.09 46.12 9.09C46.15 9.09 46.15 9.12 46.12 9.19C46.12 9.25 46.13 9.32 46.16 9.39C46.16 9.49 46.15 9.57 46.12 9.64C46.09 9.67 46.06 9.71 46.03 9.74C46.06 9.77 46.09 9.84 46.12 9.94C46.06 10.08 46.03 10.24 46.03 10.45C46 10.45 45.94 10.45 45.94 10.45C46 10.48 46.03 10.5 46.03 10.5C46.03 10.46 46.03 10.45 46.03 10.45C46.09 10.14 46.22 9.79 46.43 9.39C46.46 9.39 46.52 9.39 46.61 9.39L46.74 9.39C46.8 9.39 46.82 9.42 46.79 9.49C46.82 9.52 46.82 9.57 46.79 9.64C46.73 9.71 46.67 9.81 46.61 9.94C46.55 10.11 46.52 10.23 46.52 10.29L46.47 10.4C46.53 10.43 46.56 10.41 46.56 10.35C46.56 10.18 46.58 10.08 46.61 10.04C46.64 10.01 46.67 9.96 46.7 9.89C46.7 9.82 46.73 9.79 46.79 9.79L46.83 9.84C46.89 9.94 46.97 9.99 47.06 9.99C47.06 10.03 47.06 10.04 47.06 10.04C46.97 10.21 46.92 10.31 46.92 10.35C46.92 10.38 46.94 10.41 46.97 10.45C47 10.48 46.98 10.5 47.01 10.5L47.06 10.65C47.06 10.75 47.01 10.92 46.92 11.15C46.98 11.18 47.01 11.18 47.01 11.15C47.01 11.15 47.1 10.83 47.28 10.19C47.37 10.09 47.41 10.04 47.41 10.04C47.53 10.04 47.56 10.03 47.5 9.99C47.5 9.96 47.53 9.94 47.59 9.94C47.62 9.98 47.65 10.01 47.68 10.04C47.71 10.11 47.72 10.16 47.72 10.19C47.72 10.19 47.72 10.21 47.72 10.24C47.72 10.24 47.72 10.26 47.72 10.29C47.72 10.33 47.71 10.38 47.68 10.45C47.65 10.51 47.64 10.6 47.64 10.7L47.64 10.85L47.81 10.4L47.86 10.35C47.89 10.35 47.96 10.29 48.08 10.19C48.08 10.26 48.11 10.29 48.17 10.29C48.2 10.33 48.23 10.36 48.26 10.4ZM45.31 9.19L45.22 9.14L45.31 9.19ZM36.83 11.4L36.79 11.2C36.76 11.2 36.67 11.02 36.52 10.65C36.67 11.12 36.76 11.35 36.79 11.35L36.83 11.4ZM37.19 11.15C37.19 11.18 37.13 11.15 37.1 11.15C37.1 11.15 37.13 11.22 37.1 11.25L37.19 11.15ZM40.49 20.12L40.63 19.71C40.54 19.65 40.49 19.53 40.49 19.46C40.49 19.43 40.43 19.41 40.4 19.41C40.4 19.34 40.37 19.24 40.31 19.11C40.28 19.01 40.25 18.91 40.22 18.81C40.22 18.84 40.16 18.82 40.14 18.86C40.22 19.02 40.3 19.26 40.36 19.56C40.42 19.83 40.46 20.02 40.49 20.12ZM39.96 19.61C39.93 19.55 39.91 19.46 39.91 19.36L39.87 19.26C39.87 19.29 39.82 19.39 39.82 19.46C39.85 19.53 39.9 19.58 39.96 19.61ZM38.13 29.58L38.08 29.74C38.08 29.74 38.13 29.65 38.13 29.58ZM37.63 30.14C37.61 30.14 37.55 30.14 37.55 30.14C37.55 30.14 37.61 30.14 37.63 30.14ZM67.01 10.8L67.01 10.85L66.92 11.65L65.49 23.39L65.49 23.54C65.43 23.61 65.4 23.64 65.4 23.64L65.4 23.74L65.4 23.89C65.4 23.89 65.39 23.91 65.36 23.94C65.36 23.94 65.34 23.96 65.32 23.99C65.32 24.03 65.29 24.09 65.23 24.09L65.09 24.09L64.96 24.04L64.96 23.84L64.96 23.79C64.93 23.83 64.88 23.84 64.82 23.94L64.73 23.94C64.73 23.98 64.7 23.99 64.65 23.99L64.6 23.99C64.6 23.99 64.59 23.99 64.56 23.99C64.53 23.96 64.5 23.94 64.47 23.94L64.47 23.84L64.33 23.89C64.27 23.89 64.24 23.89 64.24 23.89C64.24 23.83 64.21 23.79 64.15 23.79C64.12 23.83 64.11 23.88 64.11 23.94C64.08 24.01 64.04 24.04 63.98 24.04C63.95 24.01 63.9 23.99 63.84 23.99C63.81 23.96 63.8 23.93 63.8 23.89C63.83 23.86 63.83 23.78 63.8 23.74C63.77 23.71 63.74 23.68 63.71 23.64C63.74 23.68 63.8 23.68 63.8 23.74L63.66 23.89C63.63 23.89 63.62 23.93 63.62 23.99L63.57 24.09C63.57 24.09 63.45 24.08 63.31 24.04L63.26 24.04C63.26 24.04 63.26 24.06 63.26 24.09C63.23 24.09 63.22 24.09 63.22 24.09C63.22 24.13 63.22 24.2 63.22 24.2L62.28 24.35C62.28 24.41 62.29 24.45 62.32 24.45C62.38 24.48 62.41 24.48 62.41 24.45L63.62 24.3C63.74 24.3 63.83 24.33 63.89 24.4C63.92 24.43 63.95 24.43 63.98 24.4C64.04 24.36 64.11 24.38 64.11 24.45L64.07 24.65C64.07 24.68 64.05 24.72 64.02 24.75L63.31 24.95C63.25 24.95 60.42 25.17 54.82 25.61C54.79 25.64 54.72 25.69 54.69 25.66C54.66 25.66 54.63 25.66 54.6 25.66L54.51 25.66C54.48 25.66 54.45 25.64 54.42 25.61C54.42 25.61 54.41 25.56 54.38 25.45C54.38 25.39 54.38 25.34 54.38 25.3C54.44 25.3 54.51 25.27 54.6 25.2C54.6 25.2 54.63 25.2 54.69 25.2C54.6 25.07 54.54 25.05 54.42 25.15L54.33 25.05C54.3 24.98 54.3 24.95 54.33 24.95L54.29 24.75C54.32 24.72 54.33 24.7 54.33 24.7C54.33 24.7 54.39 24.7 54.42 24.7C54.39 24.63 54.35 24.6 54.29 24.6C54.23 24.5 54.23 24.46 54.29 24.5C54.29 24.46 54.32 24.4 54.38 24.3C54.41 24.26 54.48 24.23 54.51 24.2L54.51 23.99C54.48 23.96 54.5 23.93 54.56 23.89C54.47 23.89 54.45 23.86 54.42 23.89C54.39 23.89 54.36 23.89 54.33 23.89C54.3 23.86 54.27 23.84 54.24 23.84C54.24 23.84 54.24 23.83 54.24 23.79L54.15 23.54L54.2 23.39C54.17 23.42 54.09 23.42 54.06 23.39C54.03 23.39 54 23.37 53.98 23.34C53.92 23.31 53.89 23.29 53.89 23.29C53.89 23.36 53.86 23.44 53.8 23.54C53.8 23.57 53.8 23.61 53.8 23.64C53.8 23.64 53.78 23.66 53.75 23.69C53.72 23.73 53.69 23.73 53.66 23.69L53.44 23.54C53.47 23.47 53.45 23.32 53.48 23.19C53.51 23.05 53.51 22.95 53.48 22.89C53.54 22.82 53.56 22.77 53.53 22.74C53.5 22.8 53.44 22.92 53.44 22.99C53.41 23.09 53.38 23.15 53.35 23.19C53.35 23.26 53.32 23.32 53.26 23.39C53.2 23.42 53.14 23.52 53.08 23.69C52.99 23.59 52.9 23.51 52.81 23.44L53.17 21.02C53.89 15.89 54.29 13.22 54.38 13.01C54.44 12.81 54.47 12.7 54.47 12.66C54.47 12.66 54.48 12.65 54.51 12.61L54.47 12.46C54.47 12.36 54.48 12.29 54.51 12.26L54.51 12.21C54.57 12.14 54.6 12.11 54.6 12.11C54.63 12.14 54.67 12.16 54.73 12.16C54.76 12.16 54.79 12.18 54.82 12.21L54.91 12.21C54.91 12.31 54.94 12.38 55 12.41C55 12.41 54.96 12.48 54.96 12.51L55.09 12.26C55.15 12.26 55.2 12.24 55.23 12.21L55.4 12.26L55.4 12.41C55.46 12.38 55.51 12.34 55.54 12.31C55.57 12.28 55.58 12.24 55.58 12.21C55.61 12.14 55.63 12.16 55.63 12.26C55.63 12.26 55.66 12.28 55.72 12.31C55.75 12.34 55.78 12.38 55.81 12.41L55.85 12.11C55.85 12.07 55.89 12.07 55.98 12.11C55.98 12.14 56 12.16 56.03 12.16C56.06 12.12 56.07 12.11 56.07 12.11L56.07 12.01C56.07 11.97 56.09 11.94 56.12 11.91C56.15 11.87 56.18 11.87 56.21 11.91L56.3 11.96C56.33 11.96 56.4 11.89 56.52 11.76C56.46 11.82 56.36 11.86 56.3 11.86C56.21 11.82 56.1 11.82 55.98 11.86C55.95 11.89 55.92 11.89 55.89 11.86C55.87 11.86 55.81 11.84 55.81 11.81L55.76 11.5C55.76 11.5 55.78 11.49 55.81 11.45L55.98 11.45C56.1 11.45 56.21 11.44 56.3 11.4L56.43 11.35L56.48 11.35C56.48 11.29 56.49 11.29 56.43 11.35C56.31 11.35 56.18 11.35 56.12 11.35L56.03 11.4L55.98 11.45L55.85 11.35L55.72 11.4C55.69 11.44 55.66 11.44 55.63 11.4L55.4 11.2C55.43 11.13 55.42 11.1 55.45 11.1C55.51 11.07 55.55 11.03 55.58 11L55.63 10.95L56.07 10.9C56.07 10.9 56.1 10.88 56.16 10.85C56.22 10.85 56.28 10.85 56.34 10.85C56.28 10.82 56.18 10.82 56.03 10.85C55.85 10.85 55.75 10.88 55.63 10.95L55.45 10.9L55.31 10.85C55.31 10.75 55.33 10.7 55.36 10.7L55.4 10.6C55.4 10.56 55.42 10.53 55.45 10.5C55.48 10.46 55.49 10.45 55.49 10.45C55.55 10.41 55.6 10.4 55.63 10.4C55.69 10.43 55.73 10.45 55.76 10.45C55.82 10.45 55.87 10.4 55.89 10.29C55.84 10.26 55.78 10.26 55.72 10.29C55.66 10.36 55.61 10.38 55.58 10.35C55.55 10.31 55.52 10.28 55.49 10.24C55.49 10.21 55.48 10.18 55.45 10.14C55.45 10.08 55.45 10.03 55.45 9.99L55.63 9.89C55.66 9.86 57.2 9.71 60.27 9.44C63.31 9.17 64.84 9.07 64.87 9.14C64.93 9.1 65 9.09 65.09 9.09C65.21 9.12 65.3 9.12 65.36 9.09C65.39 9.12 65.4 9.17 65.4 9.24C65.4 9.27 65.4 9.3 65.4 9.34C65.4 9.37 65.27 9.42 65 9.49C64.73 9.56 64.63 9.62 64.69 9.69C64.78 9.69 64.91 9.69 65.09 9.69C65.27 9.69 65.39 9.69 65.45 9.69C65.48 9.76 65.34 9.82 65.05 9.89C64.75 9.93 64.57 9.94 64.51 9.94L64.78 10.04C64.81 10.04 64.84 10.04 64.87 10.04C64.96 10.04 65.11 10.01 65.32 9.94C65.4 9.94 65.45 9.98 65.45 10.04C65.45 10.14 65.48 10.23 65.54 10.29C65.6 10.33 65.6 10.36 65.54 10.4C65.51 10.4 65.49 10.4 65.49 10.4L65.4 10.45C65.4 10.58 65.4 10.68 65.4 10.75L65.4 10.7L65.49 10.6L65.54 10.6C65.6 10.6 65.67 10.63 65.76 10.7L65.81 10.75C65.81 10.82 65.79 10.87 65.76 10.9C65.73 10.97 65.72 11.03 65.72 11.1L65.72 11.2C65.75 11.2 65.78 11.2 65.81 11.2C65.84 11.2 65.85 11.2 65.85 11.2C65.91 11.27 65.94 11.37 65.94 11.5C65.94 11.67 65.91 11.79 65.85 11.86C65.91 11.86 65.94 11.84 65.94 11.81C65.97 11.64 66 11.47 66.03 11.3C66.06 11.17 66.07 11.02 66.07 10.85C66.07 10.75 66.09 10.7 66.12 10.7C66.18 10.7 66.21 10.66 66.21 10.6C66.21 10.56 66.24 10.55 66.3 10.55C66.39 10.58 66.45 10.63 66.48 10.7L66.52 10.75L66.43 11.2L66.48 11.3C66.51 11.3 66.52 11.29 66.52 11.25C66.52 11.12 66.54 11 66.57 10.9C66.57 10.87 66.58 10.85 66.61 10.85C66.61 10.85 66.62 10.85 66.65 10.85C66.65 10.85 66.71 10.76 66.83 10.6C66.86 10.66 66.92 10.73 67.01 10.8ZM63.93 10.45L63.89 10.35L63.89 10.45L63.93 10.45ZM64.82 10.55L64.82 10.6C64.82 10.63 64.82 10.66 64.82 10.7C64.82 10.73 64.81 10.75 64.78 10.75L64.73 10.8C64.82 10.83 64.87 10.87 64.87 10.9L64.96 10.9L65 10.6C64.94 10.6 64.88 10.58 64.82 10.55ZM65.36 11.2L65.27 11.2L65.27 11.3C65.33 11.3 65.36 11.27 65.36 11.2ZM64.91 11.35L64.82 11.35L64.82 11.45L64.91 11.45L64.91 11.35ZM63.26 13.01L58.71 13.42L58.04 13.47L56.88 21.63C59.56 21.43 61.33 21.29 62.19 21.22L63.26 13.01ZM56.07 13.06C56.07 13.17 56.07 13.23 56.07 13.27C56.1 13.27 56.12 13.25 56.12 13.22L56.16 13.06L56.07 13.06ZM54.02 22.43L54.11 22.38L54.02 22.43ZM54.24 22.94L54.2 22.89C54.17 22.89 54.11 22.92 54.02 22.99L53.93 22.94C53.9 22.97 53.89 23.02 53.89 23.09L54.02 22.99C54.08 22.95 54.15 22.94 54.24 22.94ZM63.31 23.54C63.28 23.54 63.29 23.54 63.26 23.54L63.31 23.54ZM62.95 24.2C62.92 24.2 62.9 24.2 62.9 24.2C62.9 24.2 62.92 24.2 62.95 24.2ZM86.21 10.8L86.21 10.85L86.12 11.65L84.69 23.39L84.69 23.54C84.63 23.61 84.6 23.64 84.6 23.64L84.6 23.74L84.6 23.89C84.6 23.89 84.59 23.91 84.56 23.94C84.56 23.94 84.54 23.96 84.51 23.99C84.51 24.03 84.48 24.09 84.42 24.09L84.29 24.09L84.16 24.04L84.16 23.84L84.16 23.79C84.13 23.83 84.08 23.84 84.02 23.94L83.93 23.94C83.93 23.98 83.9 23.99 83.84 23.99L83.8 23.99C83.8 23.99 83.78 23.99 83.75 23.99C83.72 23.96 83.69 23.94 83.66 23.94L83.66 23.84L83.53 23.89C83.47 23.89 83.44 23.89 83.44 23.89C83.44 23.83 83.41 23.79 83.35 23.79C83.32 23.83 83.31 23.88 83.31 23.94C83.28 24.01 83.23 24.04 83.17 24.04C83.14 24.01 83.1 23.99 83.04 23.99C83.01 23.96 82.99 23.93 82.99 23.89C83.02 23.86 83.02 23.78 82.99 23.74C82.96 23.71 82.94 23.68 82.91 23.64C82.94 23.68 82.99 23.68 82.99 23.74L82.86 23.89C82.83 23.89 82.82 23.93 82.82 23.99L82.77 24.09C82.77 24.09 82.65 24.08 82.5 24.04L82.46 24.04C82.46 24.04 82.46 24.06 82.46 24.09C82.43 24.09 82.41 24.09 82.41 24.09C82.41 24.13 82.41 24.2 82.41 24.2L81.48 24.35C81.48 24.41 81.49 24.45 81.52 24.45C81.58 24.48 81.61 24.48 81.61 24.45L82.82 24.3C82.94 24.3 83.02 24.33 83.08 24.4C83.11 24.43 83.14 24.43 83.17 24.4C83.23 24.36 83.31 24.38 83.31 24.45L83.26 24.65C83.26 24.68 83.25 24.72 83.22 24.75L82.5 24.95C82.44 24.95 79.62 25.17 74.02 25.61L73.98 25.66C73.95 25.69 73.92 25.69 73.89 25.66C73.86 25.66 73.83 25.66 73.8 25.66L73.71 25.66C73.68 25.66 73.65 25.64 73.62 25.61C73.62 25.61 73.6 25.56 73.57 25.45C73.57 25.39 73.57 25.34 73.57 25.3C73.63 25.3 73.71 25.27 73.8 25.2C73.8 25.2 73.83 25.2 73.89 25.2C73.8 25.07 73.74 25.05 73.62 25.15L73.53 25.05C73.5 24.98 73.5 24.95 73.53 24.95L73.49 24.75C73.51 24.72 73.53 24.7 73.53 24.7C73.56 24.7 73.57 24.7 73.57 24.7C73.54 24.63 73.54 24.6 73.49 24.6C73.43 24.5 73.43 24.46 73.49 24.5C73.49 24.46 73.51 24.4 73.57 24.3C73.6 24.26 73.68 24.23 73.71 24.2L73.71 23.99C73.68 23.96 73.69 23.93 73.75 23.89C73.78 23.89 73.8 23.89 73.8 23.89C73.71 23.89 73.65 23.86 73.62 23.89C73.59 23.89 73.56 23.89 73.53 23.89C73.5 23.86 73.47 23.84 73.44 23.84C73.44 23.84 73.44 23.83 73.44 23.79L73.35 23.54L73.4 23.39C73.37 23.42 73.29 23.42 73.26 23.39C73.23 23.39 73.2 23.37 73.17 23.34C73.11 23.31 73.08 23.29 73.08 23.29C73.08 23.36 73.05 23.44 72.99 23.54C72.99 23.57 72.99 23.61 72.99 23.64C72.99 23.64 72.98 23.66 72.95 23.69C72.92 23.73 72.89 23.73 72.86 23.69L72.64 23.54L72.59 23.49C72.62 23.42 72.65 23.32 72.68 23.19C72.71 23.05 72.71 22.95 72.68 22.89C72.74 22.82 72.76 22.77 72.73 22.74C72.7 22.8 72.64 22.92 72.64 22.99C72.61 23.09 72.58 23.15 72.55 23.19C72.55 23.26 72.52 23.32 72.46 23.39C72.4 23.42 72.34 23.52 72.28 23.69C72.19 23.59 72.1 23.51 72.01 23.44L72.37 21.02C73.08 15.89 73.49 13.22 73.57 13.01C73.63 12.81 73.66 12.7 73.66 12.66C73.66 12.66 73.68 12.65 73.71 12.61L73.66 12.46C73.66 12.36 73.68 12.29 73.71 12.26L73.71 12.21C73.77 12.14 73.8 12.11 73.8 12.11C73.83 12.14 73.87 12.16 73.93 12.16C73.96 12.16 73.99 12.18 74.02 12.21L74.11 12.21C74.11 12.31 74.14 12.38 74.2 12.41C74.17 12.41 74.15 12.43 74.15 12.46C74.15 12.46 74.15 12.48 74.15 12.51L74.2 12.51L74.29 12.26C74.35 12.26 74.39 12.24 74.42 12.21L74.47 12.21L74.6 12.26C74.6 12.26 74.62 12.26 74.65 12.26L74.6 12.41C74.66 12.38 74.71 12.34 74.74 12.31C74.77 12.28 74.78 12.24 74.78 12.21C74.81 12.14 74.82 12.16 74.82 12.26C74.82 12.26 74.85 12.28 74.91 12.31C74.94 12.34 74.97 12.38 75 12.41L75.05 12.11C75.05 12.07 75.09 12.07 75.18 12.11C75.18 12.14 75.2 12.16 75.23 12.16C75.26 12.12 75.27 12.11 75.27 12.11L75.27 12.01C75.27 11.97 75.29 11.94 75.32 11.91C75.35 11.87 75.38 11.87 75.41 11.91L75.49 11.96C75.52 11.96 75.6 11.89 75.72 11.76C75.66 11.82 75.55 11.86 75.49 11.86C75.41 11.82 75.3 11.82 75.18 11.86C75.15 11.89 75.12 11.89 75.09 11.86C75.06 11.86 75.05 11.86 75.05 11.86C75.02 11.86 75 11.84 75 11.81L74.96 11.5C74.96 11.5 74.97 11.49 75 11.45L75.18 11.45C75.3 11.45 75.41 11.44 75.49 11.4L75.63 11.35L75.67 11.35C75.67 11.29 75.69 11.29 75.63 11.35C75.51 11.35 75.38 11.35 75.32 11.35L75.23 11.4L75.18 11.45L75.05 11.35L74.91 11.4C74.88 11.44 74.85 11.44 74.82 11.4L74.6 11.2C74.63 11.13 74.62 11.1 74.65 11.1C74.71 11.07 74.75 11.03 74.78 11L74.82 10.95L75.27 10.9C75.27 10.9 75.3 10.88 75.36 10.85C75.42 10.85 75.48 10.85 75.54 10.85C75.48 10.82 75.38 10.82 75.23 10.85C75.05 10.85 74.94 10.88 74.82 10.95L74.65 10.9L74.51 10.85C74.51 10.75 74.53 10.7 74.56 10.7L74.6 10.6C74.6 10.56 74.62 10.53 74.65 10.5C74.68 10.46 74.69 10.45 74.69 10.45C74.75 10.41 74.79 10.4 74.82 10.4C74.88 10.43 74.93 10.45 74.96 10.45C75.02 10.45 75.06 10.4 75.09 10.29C75.03 10.26 74.97 10.26 74.91 10.29C74.85 10.36 74.81 10.38 74.78 10.35C74.75 10.31 74.72 10.28 74.69 10.24C74.69 10.21 74.68 10.18 74.65 10.14C74.65 10.08 74.65 10.03 74.65 9.99L74.82 9.89C74.85 9.86 76.4 9.71 79.47 9.44C82.5 9.17 84.04 9.07 84.07 9.14C84.13 9.1 84.2 9.09 84.29 9.09C84.41 9.12 84.5 9.12 84.56 9.09C84.59 9.12 84.6 9.17 84.6 9.24C84.6 9.27 84.6 9.3 84.6 9.34C84.6 9.37 84.47 9.42 84.2 9.49C83.93 9.56 83.83 9.62 83.89 9.69C83.98 9.69 84.11 9.69 84.29 9.69C84.47 9.69 84.59 9.69 84.65 9.69C84.68 9.76 84.54 9.82 84.24 9.89C83.95 9.93 83.77 9.94 83.71 9.94L83.98 10.04C84.01 10.04 84.04 10.04 84.07 10.04C84.16 10.04 84.3 10.01 84.51 9.94C84.6 9.94 84.65 9.98 84.65 10.04C84.65 10.14 84.68 10.23 84.74 10.29C84.8 10.33 84.8 10.36 84.74 10.4C84.71 10.4 84.69 10.4 84.69 10.4L84.6 10.45C84.6 10.58 84.6 10.68 84.6 10.75L84.6 10.7L84.69 10.6L84.74 10.6C84.8 10.6 84.87 10.63 84.96 10.7L85 10.75C85 10.82 84.99 10.87 84.96 10.9C84.93 10.97 84.91 11.03 84.91 11.1L84.91 11.2C84.94 11.2 84.97 11.2 85 11.2C85.03 11.2 85.05 11.2 85.05 11.2C85.11 11.27 85.14 11.37 85.14 11.5C85.14 11.67 85.11 11.79 85.05 11.86C85.11 11.86 85.14 11.84 85.14 11.81C85.17 11.64 85.2 11.47 85.23 11.3C85.26 11.17 85.27 11.02 85.27 10.85C85.27 10.75 85.29 10.7 85.32 10.7C85.38 10.7 85.41 10.66 85.41 10.6C85.41 10.56 85.44 10.55 85.49 10.55C85.58 10.58 85.64 10.63 85.67 10.7L85.72 10.75L85.63 11.2L85.67 11.3C85.7 11.3 85.72 11.29 85.72 11.25C85.72 11.12 85.73 11 85.76 10.9C85.76 10.87 85.78 10.85 85.81 10.85C85.81 10.85 85.82 10.85 85.85 10.85C85.85 10.85 85.91 10.76 86.03 10.6C86.06 10.66 86.12 10.73 86.21 10.8ZM83.13 10.45L83.08 10.35L83.08 10.45L83.13 10.45ZM84.02 10.55L84.02 10.6C84.02 10.63 84.02 10.66 84.02 10.7C84.02 10.73 84.01 10.75 83.98 10.75L83.93 10.8C84.02 10.83 84.07 10.87 84.07 10.9L84.16 10.9L84.2 10.6C84.14 10.6 84.08 10.58 84.02 10.55ZM84.56 11.2L84.47 11.2L84.47 11.3C84.53 11.3 84.56 11.27 84.56 11.2ZM84.11 11.35L84.02 11.35L84.02 11.45L84.11 11.45L84.11 11.35ZM82.46 13.01L77.91 13.42L77.24 13.47L76.07 21.63C78.75 21.43 80.52 21.29 81.39 21.22L82.46 13.01ZM75.27 13.06C75.27 13.17 75.27 13.23 75.27 13.27C75.3 13.27 75.32 13.25 75.32 13.22L75.36 13.06L75.27 13.06ZM73.22 22.43L73.31 22.38L73.22 22.43ZM73.44 22.94L73.4 22.89C73.37 22.89 73.31 22.92 73.22 22.99L73.13 22.94C73.1 22.97 73.08 23.02 73.08 23.09L73.22 22.99C73.28 22.95 73.35 22.94 73.44 22.94ZM82.5 23.54C82.47 23.54 82.49 23.54 82.46 23.54L82.5 23.54ZM82.15 24.2C82.12 24.2 82.1 24.2 82.1 24.2C82.1 24.2 82.12 24.2 82.15 24.2Z" fill="#000000" fill-opacity="1.000000" fill-rule="nonzero"/>
</svg>
